<?xml version="1.0" standalone="no"?>
<!DOCTYPE svg PUBLIC "-//W3C//DTD SVG 20010904//EN"
 "http://www.w3.org/TR/2001/REC-SVG-20010904/DTD/svg10.dtd">
<svg version="1.0" xmlns="http://www.w3.org/2000/svg"
 width="920.000000pt" height="235.000000pt" viewBox="0 0 920.000000 235.000000"
 preserveAspectRatio="xMidYMid meet">
<metadata>
Created by potrace 1.16, written by Peter Selinger 2001-2019
</metadata>
<g transform="translate(0.000000,235.000000) scale(0.100000,-0.100000)"
fill="#000000" stroke="none">
<path d="M991 2155 c-357 -78 -637 -329 -744 -670 -168 -533 144 -1090 688
-1230 338 -87 702 15 943 264 188 194 282 446 269 721 -22 458 -342 830 -787
916 -93 18 -284 17 -369 -1z m326 -6 c285 -38 554 -224 697 -480 87 -158 136
-378 120 -548 -5 -55 -10 -71 -20 -67 -8 3 -14 1 -14 -4 0 -6 5 -10 11 -10 11
0 10 -13 -6 -94 -11 -53 -61 -171 -72 -169 -6 1 -9 -7 -5 -19 4 -16 2 -19 -8
-13 -9 5 -11 4 -6 -3 9 -15 -18 -55 -29 -44 -5 4 -5 1 -1 -5 9 -16 -33 -75
-47 -66 -6 3 -7 1 -3 -6 9 -14 -12 -43 -25 -35 -5 3 -8 0 -7 -8 2 -7 -2 -12
-9 -11 -8 2 -10 -4 -6 -14 5 -12 2 -15 -10 -10 -12 4 -14 2 -10 -10 5 -12 2
-15 -10 -10 -12 4 -14 2 -10 -10 5 -12 2 -15 -10 -10 -12 4 -14 2 -10 -10 5
-13 2 -15 -11 -10 -9 4 -15 3 -12 -2 8 -13 -41 -54 -55 -46 -7 5 -10 4 -5 -3
8 -13 -30 -36 -44 -27 -6 4 -9 1 -8 -5 4 -15 -92 -71 -110 -65 -7 3 -11 1 -8
-3 4 -7 -68 -43 -98 -48 -6 -1 -40 -11 -76 -21 -100 -28 -356 -25 -465 6 -362
102 -625 373 -701 724 -19 84 -21 274 -4 368 32 187 117 352 255 498 216 227
518 333 832 290z"/>
<path d="M1178 2044 c-2 -1 -30 -3 -63 -5 -33 -1 -84 -9 -114 -16 -29 -8 -60
-12 -67 -9 -8 3 -14 1 -14 -5 0 -6 -6 -9 -14 -6 -8 3 -17 -2 -21 -11 -5 -14
-7 -14 -15 -2 -6 10 -10 11 -10 3 0 -7 -28 -26 -62 -43 -35 -17 -71 -38 -80
-47 -9 -8 -22 -12 -29 -7 -7 4 -10 3 -6 -3 8 -13 -50 -56 -65 -47 -6 4 -8 3
-5 -3 7 -12 -101 -129 -115 -125 -5 1 -6 -2 -3 -8 4 -6 0 -19 -8 -28 -8 -9
-27 -38 -42 -65 -15 -26 -31 -45 -35 -42 -4 3 -6 -5 -2 -17 3 -13 1 -19 -5
-15 -6 4 -10 1 -9 -6 0 -6 -10 -49 -23 -95 -17 -57 -29 -81 -38 -78 -7 3 -13
-1 -13 -9 0 -19 -17 -28 -26 -14 -4 8 -3 9 4 5 7 -4 12 -1 12 8 0 9 -6 15 -12
13 -9 -1 -12 12 -11 47 3 62 -1 57 -20 -24 -16 -64 -23 -175 -13 -215 2 -11 5
-38 7 -60 l2 -40 7 35 c6 28 8 30 9 10 1 -14 6 -32 11 -40 8 -11 9 -7 5 15 -4
25 -4 26 4 9 5 -12 12 -34 15 -50 3 -16 10 -42 15 -59 l11 -30 -6 30 c-9 44
-15 306 -8 333 11 41 21 22 13 -25 -19 -118 -2 -275 43 -398 76 -206 271 -403
486 -490 152 -62 365 -77 517 -36 545 145 799 747 520 1235 -54 95 -119 172
-199 237 -34 27 -67 54 -74 60 -13 11 -81 45 -154 78 -26 11 -64 24 -85 27
-21 3 -41 8 -45 10 -4 3 -31 7 -60 10 -29 3 -65 7 -80 8 -15 2 -29 2 -30 0z
m196 -39 c160 -42 261 -101 381 -220 248 -247 319 -601 185 -916 -232 -547
-953 -671 -1367 -235 -335 352 -297 898 86 1207 113 92 257 157 396 179 80 12
246 5 319 -15z"/>
<path d="M775 1793 c-303 -223 -393 -631 -210 -960 45 -80 178 -216 247 -252
74 -40 78 -31 78 160 l0 159 285 0 285 0 0 -160 0 -160 25 -12 c20 -9 32 -8
62 8 53 28 192 170 232 236 94 160 125 372 82 553 -40 168 -139 327 -261 418
-68 52 -112 61 -130 28 -5 -11 -10 -84 -10 -165 l0 -145 -262 -3 c-145 -2
-273 -2 -285 0 -22 3 -23 6 -25 165 l-3 162 -30 3 c-21 1 -44 -8 -80 -35z m94
-140 c1 -86 4 -160 7 -165 3 -4 0 -8 -7 -8 -8 0 -8 -4 1 -15 9 -11 15 -12 20
-5 5 8 97 11 298 10 l292 0 0 154 c0 85 3 161 6 170 7 18 39 22 49 6 3 -5 13
-10 22 -10 30 0 127 -95 182 -179 97 -150 146 -347 123 -501 -17 -117 -46
-205 -95 -285 -32 -52 -48 -69 -62 -68 -11 1 -14 0 -7 -3 18 -8 15 -27 -4 -20
-9 3 -12 2 -9 -5 9 -13 -13 -39 -29 -33 -7 3 -21 -4 -31 -16 -10 -11 -14 -20
-10 -20 4 0 0 -9 -10 -20 -25 -28 -43 -25 -19 3 l19 22 -22 -19 c-13 -10 -20
-22 -17 -27 2 -4 -6 -13 -18 -20 -21 -11 -22 -11 -10 4 12 14 11 15 -12 4 -16
-8 -21 -14 -13 -19 8 -5 7 -8 -4 -8 -9 0 -20 7 -23 16 -12 31 -7 319 6 332 9
9 9 12 -1 12 -7 0 -9 5 -5 13 6 9 4 9 -7 1 -8 -6 -39 -12 -69 -13 -76 -4 -77
-11 -2 -11 35 0 62 -4 62 -10 0 -6 -105 -10 -295 -10 l-295 0 0 -141 c0 -144
-5 -163 -42 -171 -24 -5 -113 58 -170 122 -138 152 -200 335 -178 522 27 223
115 384 284 519 95 75 94 76 95 -108z"/>
<path d="M1582 1573 c8 -58 8 -431 0 -550 -4 -59 -22 -88 -38 -61 -4 6 -3 8 4
4 6 -3 13 -2 16 3 5 7 -22 8 -31 1 -2 -2 -8 -3 -15 -4 -6 0 -13 -8 -15 -16 -4
-13 -3 -13 6 0 6 8 11 10 11 4 0 -6 -3 -14 -7 -18 -4 -3 -8 -64 -9 -134 -2
-91 0 -114 6 -82 13 69 15 79 25 87 4 4 5 3 2 -3 -4 -7 1 -18 10 -25 14 -12
15 -11 9 11 -6 21 -5 22 4 7 6 -9 8 -27 5 -38 -14 -42 12 -9 49 65 21 42 42
73 47 70 5 -3 6 3 2 12 -4 12 -3 15 5 10 8 -5 10 -1 5 10 -4 12 -3 15 5 10 8
-5 10 -1 5 10 -4 12 -3 15 5 10 8 -5 10 -2 6 8 -3 9 -1 16 6 16 6 0 9 4 6 8
-3 5 2 33 10 63 19 70 18 208 -1 284 -9 33 -32 94 -52 135 -20 41 -37 77 -38
80 -2 8 -47 80 -49 80 -2 0 1 -26 6 -57z m118 -238 c32 -135 18 -269 -39 -392
-17 -34 -32 -63 -35 -63 -4 0 -6 145 -5 323 l1 322 33 -70 c19 -38 39 -92 45
-120z"/>
<path d="M740 1561 c-7 -11 -17 -18 -21 -16 -4 3 -6 -1 -6 -8 1 -6 -14 -43
-32 -82 -48 -103 -64 -183 -59 -295 4 -71 11 -111 30 -158 26 -63 88 -172 98
-172 3 0 5 169 5 375 0 206 0 375 0 375 0 0 -7 -9 -15 -19z m-5 -360 c0 -176
-3 -317 -8 -314 -4 2 -17 23 -28 46 -86 168 -88 339 -5 514 19 40 36 73 38 73
2 0 3 -144 3 -319z"/>
<path d="M1173 1353 l-302 -3 -3 -158 c-2 -86 -2 -160 -1 -163 1 -3 26 0 55 7
37 10 124 14 300 14 l248 0 0 118 c0 64 4 134 9 155 5 20 6 36 2 35 -3 -2
-142 -4 -308 -5z m235 -21 l52 -2 0 -135 0 -135 -285 0 -285 0 0 133 c0 74 2
136 5 139 5 4 359 4 513 0z"/>
<path d="M1840 1131 c0 -11 -5 -23 -10 -26 -6 -4 -7 -11 -4 -17 4 -7 2 -8 -5
-4 -9 6 -9 11 0 22 6 8 9 17 5 21 -3 3 -6 1 -6 -6 0 -7 -5 -9 -10 -6 -6 4 -10
3 -9 -2 1 -4 1 -17 -1 -28 l-1 -20 -9 20 -9 20 -1 -20 c-2 -17 -3 -16 -10 5
l-8 25 -1 -27 c-2 -61 -78 -227 -144 -313 l-31 -40 40 38 c22 20 43 34 47 31
3 -4 4 4 2 17 -4 23 -4 23 10 5 8 -11 15 -14 15 -7 0 7 4 10 9 7 12 -8 29 16
26 36 -4 23 20 44 31 27 4 -7 3 -9 -4 -5 -6 3 -13 2 -17 -4 -3 -5 -1 -10 4
-10 6 0 11 -5 11 -11 0 -5 -4 -7 -10 -4 -5 3 -7 0 -5 -8 3 -7 -3 -24 -15 -37
-22 -26 -28 -49 -6 -28 45 45 109 201 122 294 3 27 8 52 10 56 2 4 0 9 -6 13
-5 3 -10 -3 -10 -14z"/>
<path d="M531 1105 c-1 -74 51 -223 95 -270 10 -12 15 -15 10 -8 -6 9 -5 18 2
25 9 9 8 16 -1 27 -11 14 -10 14 5 2 10 -7 16 -17 13 -21 -3 -5 0 -12 6 -15 5
-4 8 -14 5 -22 -4 -8 -1 -11 5 -7 6 3 9 15 6 25 -3 11 -1 16 5 13 5 -4 8 -17
5 -30 -2 -14 0 -27 5 -30 4 -3 8 -2 7 3 -1 4 -1 15 0 23 1 13 3 13 10 0 6 -8
7 -19 4 -25 -4 -5 -3 -7 2 -3 4 4 14 3 22 -3 8 -8 13 -8 13 -1 0 6 -3 12 -7
14 -29 12 -108 180 -128 271 -10 44 -14 53 -14 30 -1 -17 -5 -34 -10 -37 -5
-4 -7 4 -5 16 2 13 2 18 -2 11 -6 -14 -37 10 -47 37 -3 8 -6 -3 -6 -25z"/>
<path d="M788 964 c-6 -43 7 -212 16 -222 6 -5 10 42 7 62 -1 5 4 4 12 -2 8
-7 16 -10 18 -7 3 2 4 -9 3 -25 -1 -17 2 -28 7 -25 4 3 5 13 2 22 -4 9 -2 14
3 10 6 -3 11 24 12 66 2 39 6 75 8 79 3 4 42 8 86 8 98 0 100 8 3 11 -39 1
-76 6 -82 12 -7 5 -13 6 -13 2 0 -4 -7 -2 -15 5 -8 7 -15 9 -15 4 0 -5 -5 -2
-11 6 -9 13 -10 13 -6 0 2 -8 9 -16 15 -16 7 -1 15 -3 20 -4 4 -1 11 -2 15 -1
5 1 6 -3 2 -9 -5 -8 -11 -7 -21 1 -8 6 -14 8 -14 4 0 -4 -6 -2 -13 4 -8 6 -18
7 -22 3 -5 -4 -6 -2 -3 3 3 6 2 19 -2 30 -5 15 -8 10 -12 -21z"/>
<path d="M2084 1407 c3 -52 -15 -81 -32 -52 -7 13 -9 6 -9 -24 0 -23 3 -41 7
-41 7 0 6 -104 -3 -200 -3 -36 -4 -57 -1 -47 3 10 10 14 17 10 9 -5 9 -3 0 8
-7 9 -8 20 -3 29 5 8 6 18 4 22 -3 5 0 7 8 6 7 -2 12 3 10 10 -1 8 2 11 7 8 5
-4 11 -3 14 1 2 5 3 4 2 -2 -1 -5 2 -19 6 -30 14 -33 7 222 -8 278 -19 74 -22
78 -19 24z"/>
<path d="M4761 1855 c-219 -41 -384 -204 -448 -445 -25 -92 -25 -339 0 -430
74 -266 267 -432 523 -447 240 -15 440 98 542 307 54 110 71 180 79 315 15
296 -108 545 -324 654 -99 50 -252 69 -372 46z m187 -307 c70 -17 143 -94 170
-178 52 -164 27 -352 -61 -456 -85 -101 -279 -101 -363 -1 -71 83 -105 230
-85 365 31 209 163 315 339 270z"/>
<path d="M5974 1861 c-226 -36 -362 -167 -381 -365 -6 -72 15 -167 50 -223 57
-91 169 -159 307 -189 213 -45 280 -80 280 -146 0 -46 -30 -91 -75 -112 -30
-15 -55 -17 -124 -14 -104 5 -170 34 -246 109 l-50 49 -103 -103 -103 -103 53
-50 c126 -119 251 -172 427 -181 239 -12 434 82 509 244 34 76 43 224 18 301
-46 138 -146 204 -391 258 -132 29 -162 40 -197 72 -57 52 -39 125 39 163 81
39 197 15 299 -61 l51 -38 97 97 98 98 -59 52 c-65 58 -150 103 -235 125 -73
19 -199 27 -264 17z"/>
<path d="M7095 1841 c-288 -82 -459 -387 -415 -736 44 -351 274 -575 590 -575
199 0 337 67 455 220 l44 57 -131 88 c-113 75 -132 85 -140 70 -90 -159 -316
-171 -429 -21 -121 160 -97 451 47 561 105 80 257 68 341 -28 17 -19 33 -41
35 -49 3 -9 44 13 131 71 70 46 127 88 127 94 0 5 -16 29 -35 53 -89 108 -178
169 -290 199 -81 21 -252 19 -330 -4z"/>
<path d="M3124 1831 c-2 -2 -4 -289 -4 -638 l0 -633 353 0 c201 0 371 5 396
11 115 26 225 109 271 204 20 42 25 65 25 140 0 79 -4 97 -28 147 -31 62 -89
117 -152 144 l-38 15 30 19 c49 29 101 89 119 136 12 33 15 66 12 136 -3 79
-8 101 -33 147 -35 63 -94 114 -167 144 -50 21 -73 22 -416 27 -200 3 -366 3
-368 1z m601 -275 c44 -19 69 -66 62 -118 -11 -84 -61 -108 -227 -108 l-120 0
0 120 0 120 125 0 c86 0 136 -4 160 -14z m38 -500 c63 -31 85 -103 51 -167
-25 -49 -64 -59 -229 -59 l-145 0 0 126 0 126 143 -4 c112 -3 150 -8 180 -22z"/>
<path d="M7908 1835 c0 0 -2 -287 -3 -637 l-2 -638 168 0 169 0 0 250 0 250
195 0 195 0 0 -250 0 -250 165 0 165 0 0 638 0 637 -165 -3 -165 -3 0 -229 0
-230 -195 0 -195 0 0 233 0 232 -165 0 c-91 0 -166 0 -167 0z"/>
</g>
</svg>
