<?xml version="1.0" standalone="no"?>
<!DOCTYPE svg PUBLIC "-//W3C//DTD SVG 20010904//EN"
 "http://www.w3.org/TR/2001/REC-SVG-20010904/DTD/svg10.dtd">
<svg version="1.0" xmlns="http://www.w3.org/2000/svg"
 width="1280.000000pt" height="294.000000pt" viewBox="0 0 1280.000000 294.000000"
 preserveAspectRatio="xMidYMid meet">
<metadata>
Created by potrace 1.16, written by Peter Selinger 2001-2019
</metadata>
<g transform="translate(0.000000,294.000000) scale(0.100000,-0.100000)"
fill="#000000" stroke="none">
<path d="M2830 2440 l0 -500 4930 0 4930 0 0 500 0 500 -4930 0 -4930 0 0
-500z"/>
<path d="M0 665 l0 -665 970 0 970 0 0 125 0 125 -510 0 -510 0 0 140 0 140
510 0 510 0 0 130 0 130 -515 0 -515 0 0 140 0 140 515 0 515 0 0 130 0 130
-970 0 -970 0 0 -665z"/>
<path d="M3137 1319 c-96 -23 -197 -99 -250 -190 -54 -93 -57 -121 -57 -646
l0 -483 885 0 886 0 -3 108 -3 107 -587 3 -588 2 0 160 0 160 500 0 501 0 -3
113 -3 112 -497 3 -498 2 0 165 0 165 590 0 590 0 0 99 c0 55 -3 106 -6 115
-6 14 -77 16 -713 15 -388 -1 -723 -5 -744 -10z"/>
<path d="M5110 1311 c-108 -35 -200 -115 -248 -219 l-27 -57 -3 -517 -3 -518
891 0 890 0 0 373 c0 204 -4 378 -8 385 -7 10 -97 12 -418 10 l-409 -3 -3
-112 -3 -113 301 0 300 0 0 -150 0 -150 -480 0 -480 0 0 430 0 430 600 0 600
0 0 99 c0 55 -3 106 -6 115 -6 14 -78 16 -723 15 -656 0 -721 -2 -771 -18z"/>
<path d="M7173 1320 c-105 -25 -222 -119 -267 -214 -43 -92 -46 -132 -46 -631
l0 -475 890 0 890 0 -2 383 -3 382 -410 0 -410 0 -3 -112 -3 -113 296 0 295 0
0 -150 0 -150 -475 0 -475 0 0 430 0 430 595 0 595 0 0 115 0 115 -717 -1
c-395 -1 -732 -4 -750 -9z"/>
<path d="M9187 1310 c-146 -46 -252 -171 -277 -326 -6 -33 -10 -267 -10 -521
l0 -463 885 0 886 0 -3 108 -3 107 -587 3 -588 2 0 160 0 160 500 0 501 0 -3
113 -3 112 -497 3 -498 2 0 165 0 165 590 0 591 0 -3 113 -3 112 -710 2 c-668
2 -713 1 -768 -17z"/>
<path d="M11178 1311 c-31 -10 -72 -28 -91 -40 -54 -33 -126 -116 -155 -179
l-27 -57 -3 -517 -3 -518 290 0 291 0 2 267 3 267 260 -224 c143 -123 281
-243 307 -267 l47 -43 351 0 c328 0 351 1 348 17 -2 10 -136 130 -298 268
l-294 250 104 6 c119 8 171 26 238 84 179 155 191 437 25 603 -26 26 -70 59
-98 72 l-50 25 -595 2 c-552 2 -599 1 -652 -16z m1141 -229 c92 -46 113 -170
44 -253 -50 -58 -54 -59 -488 -59 l-395 0 0 165 0 165 403 0 c363 0 405 -2
436 -18z"/>
</g>
</svg>
