<?xml version="1.0" standalone="no"?>
<!DOCTYPE svg PUBLIC "-//W3C//DTD SVG 20010904//EN"
 "http://www.w3.org/TR/2001/REC-SVG-20010904/DTD/svg10.dtd">
<svg version="1.0" xmlns="http://www.w3.org/2000/svg"
 width="2000.000000pt" height="667.000000pt" viewBox="0 0 2000.000000 667.000000"
 preserveAspectRatio="xMidYMid meet">
<metadata>
Created by potrace 1.16, written by Peter Selinger 2001-2019
</metadata>
<g transform="translate(0.000000,667.000000) scale(0.100000,-0.100000)"
fill="#000000" stroke="none">
<path d="M10578 4558 c-93 -75 -243 -233 -300 -313 -92 -130 -145 -263 -168
-424 -42 -285 80 -551 304 -662 45 -22 72 -38 61 -35 -11 3 -33 8 -50 12 -56
13 -165 76 -216 127 -183 180 -251 469 -178 757 27 108 117 295 207 430 39 58
67 106 61 108 -13 5 -132 -35 -215 -73 l-71 -33 -46 -139 c-68 -208 -91 -339
-84 -493 6 -153 30 -251 94 -380 39 -78 62 -110 133 -180 135 -136 259 -187
429 -177 94 6 91 -5 -7 -23 -275 -53 -579 146 -712 466 -63 153 -73 208 -74
439 0 116 2 230 6 255 l8 45 -74 -77 c-90 -94 -156 -190 -156 -228 0 -69 61
-312 110 -436 189 -477 718 -699 1053 -442 l42 31 -49 -51 c-228 -237 -666
-188 -967 108 -102 100 -255 347 -314 505 -14 39 -33 76 -42 83 -12 8 -60 12
-158 12 -173 0 -176 -2 -209 -103 -6 -18 -8 -18 -39 3 -66 44 -180 90 -250
101 -374 59 -776 -174 -982 -568 -20 -37 -34 -57 -31 -43 31 158 95 561 90
574 -12 30 -42 36 -192 36 -128 0 -153 -3 -170 -17 -18 -16 -41 -131 -167
-821 -141 -772 -147 -804 -130 -822 17 -18 32 -20 190 -20 145 0 175 3 186 16
7 9 36 148 64 310 l50 295 13 -92 c34 -247 199 -456 428 -541 51 -20 78 -23
199 -22 122 0 151 4 228 27 48 15 123 45 167 67 44 22 82 40 84 40 3 0 2 -15
-1 -33 -10 -61 7 -67 182 -67 121 0 157 3 168 14 8 8 24 64 35 123 11 59 62
336 113 615 l93 507 116 -116 c231 -233 382 -333 575 -384 98 -27 300 -32 385
-10 186 47 330 163 397 318 23 55 24 56 18 18 -3 -22 -21 -72 -40 -111 -141
-291 -550 -422 -918 -295 -95 33 -244 111 -361 189 -60 40 -111 70 -113 68 -9
-8 56 -199 89 -266 l33 -65 90 -32 c218 -77 419 -109 581 -93 303 31 548 189
646 419 31 72 33 83 33 199 0 114 1 121 14 90 19 -47 26 -192 11 -261 -6 -32
-32 -100 -58 -150 -104 -209 -344 -376 -609 -422 -91 -16 -368 -22 -463 -9
-31 4 -50 3 -50 -3 0 -13 105 -106 178 -158 l52 -37 81 12 c105 15 309 71 406
112 229 95 424 294 500 510 35 98 44 266 18 353 -20 72 -55 141 -90 184 -15
17 -22 31 -17 31 15 0 79 -77 113 -135 101 -172 98 -403 -6 -621 -42 -87 -134
-212 -203 -276 -76 -71 -220 -162 -376 -239 -136 -67 -139 -68 -110 -80 55
-21 209 -49 276 -49 58 0 71 4 100 27 350 285 508 556 508 871 -1 188 -52 330
-162 448 -46 49 -81 74 -142 104 -90 44 -87 51 6 19 170 -57 304 -208 370
-419 20 -65 23 -95 23 -230 0 -120 -5 -171 -19 -225 -37 -137 -132 -323 -247
-484 -33 -46 -58 -86 -55 -88 8 -8 148 34 238 72 l87 37 32 81 c17 45 47 143
66 217 45 172 56 366 28 501 -58 286 -231 499 -463 569 -60 18 -91 22 -170 18
-91 -4 -94 -3 -62 10 56 23 204 27 279 7 224 -58 418 -250 510 -501 61 -167
89 -392 72 -577 -12 -123 -34 -200 -82 -285 -18 -32 -29 -64 -27 -80 l3 -27
240 -3 240 -2 699 835 c384 460 700 835 701 833 5 -5 -100 -513 -230 -1118
-58 -272 -105 -506 -103 -520 l3 -25 172 -3 172 -2 708 829 c389 456 709 827
711 826 4 -4 -138 -621 -282 -1225 -68 -283 -91 -400 -85 -412 9 -16 29 -18
203 -18 143 0 196 3 203 13 6 6 46 158 90 336 l80 323 5 -103 c9 -179 68 -308
198 -439 134 -134 268 -186 460 -178 131 6 238 35 362 96 l94 47 -4 -38 c-7
-64 1 -67 178 -67 137 0 159 2 172 18 13 15 220 1085 278 1442 11 69 23 137
26 152 4 19 -1 33 -15 47 -19 19 -33 21 -167 21 -80 0 -154 -4 -164 -10 -12
-6 -23 -30 -30 -65 -6 -30 -13 -55 -15 -55 -1 0 -29 17 -61 38 -139 91 -291
120 -474 92 -138 -22 -301 -94 -417 -183 -85 -65 -208 -198 -264 -285 -28 -42
-47 -66 -44 -52 3 14 75 309 161 655 85 347 153 641 152 655 l-3 25 -191 0
-191 0 -667 -755 c-368 -415 -676 -763 -685 -773 -13 -13 22 170 142 743 129
618 157 763 147 775 -11 13 -45 15 -213 13 l-201 -3 -871 -1006 c-478 -554
-871 -1006 -872 -1005 -1 1 -13 59 -28 131 -28 138 -108 392 -151 478 -76 150
-218 307 -350 385 -234 138 -493 133 -684 -15 -35 -27 -31 -21 20 29 104 100
226 148 383 148 197 0 398 -87 567 -246 90 -85 204 -255 280 -417 30 -64 58
-117 61 -117 10 0 37 117 50 217 l12 93 -58 70 c-96 118 -294 300 -384 354
-89 54 -241 109 -341 125 -309 50 -593 -83 -697 -326 -23 -55 -24 -56 -18 -18
10 61 69 176 120 233 134 148 357 232 589 219 199 -10 379 -80 620 -241 71
-47 131 -84 133 -82 14 14 -94 312 -120 335 -22 18 -244 89 -364 117 -155 36
-333 38 -466 6 -229 -56 -416 -193 -501 -366 -45 -94 -60 -164 -54 -270 2 -47
3 -84 1 -82 -13 13 -33 122 -33 181 0 286 244 561 585 660 122 35 311 49 488
35 76 -6 141 -9 143 -7 7 7 -114 114 -188 167 l-67 47 -88 -14 c-450 -72 -734
-251 -879 -556 -96 -202 -81 -443 37 -590 47 -58 28 -55 -25 4 -57 63 -110
172 -127 257 -26 135 3 318 74 457 108 214 287 373 579 514 65 31 118 59 118
62 0 14 -259 59 -342 59 -9 0 -45 -23 -80 -52z m-1956 -1179 c160 -34 261
-141 290 -307 16 -93 1 -171 -51 -277 -70 -141 -173 -245 -311 -313 -73 -37
-75 -37 -195 -37 -137 0 -184 15 -248 79 -48 47 -105 167 -113 237 -24 207
134 473 345 579 47 23 145 48 198 49 18 1 56 -4 85 -10z m7313 0 c241 -44 361
-288 267 -537 -53 -139 -196 -294 -330 -359 -65 -31 -88 -37 -167 -41 -204
-10 -306 57 -375 246 -19 52 -22 75 -18 145 10 151 67 266 193 392 88 88 157
128 259 150 77 17 99 17 171 4z"/>
<path d="M1494 3380 c-924 -1066 -1049 -1214 -1049 -1243 l0 -32 240 -3 240
-2 703 841 c386 462 702 838 702 836 0 -14 -105 -518 -216 -1037 -69 -322
-124 -596 -122 -610 l3 -25 172 -3 171 -2 709 829 c389 456 709 828 711 826 4
-3 -117 -526 -267 -1159 -81 -338 -107 -465 -100 -478 9 -16 27 -18 203 -18
143 0 196 3 203 12 6 7 40 137 77 288 75 309 84 338 85 269 1 -65 36 -193 73
-269 45 -94 177 -223 278 -272 118 -57 186 -72 330 -71 189 1 341 49 505 158
145 96 328 318 328 397 0 52 -20 58 -185 58 l-149 0 -47 -43 c-162 -148 -294
-206 -440 -193 -154 14 -296 136 -318 274 l-7 42 612 0 611 0 4 -22 c3 -13 7
-55 10 -94 12 -153 75 -283 196 -404 133 -133 268 -186 460 -178 131 6 238 35
362 96 l94 47 -4 -38 c-7 -64 1 -67 179 -67 154 0 159 1 173 23 8 12 98 477
201 1032 102 556 189 1022 192 1036 4 19 -1 33 -16 48 -19 19 -32 21 -169 21
-103 0 -153 -4 -165 -12 -12 -9 -34 -95 -76 -297 -33 -156 -62 -286 -65 -288
-3 -3 -18 4 -35 16 -61 43 -177 91 -251 102 -89 14 -222 7 -317 -16 -92 -23
-241 -94 -322 -154 -143 -107 -291 -285 -351 -424 -14 -31 -28 -57 -31 -57 -3
0 -9 27 -12 59 -4 33 -20 102 -37 153 -63 199 -203 337 -407 404 -81 27 -100
29 -238 29 -170 0 -236 -15 -376 -85 -168 -83 -323 -218 -419 -365 -29 -44
-50 -71 -46 -60 34 117 316 1286 314 1305 l-3 25 -191 0 -191 0 -668 -755
c-367 -415 -676 -764 -685 -774 -16 -16 -14 2 15 140 18 87 88 430 155 762 97
482 119 606 110 617 -10 12 -48 15 -204 15 l-192 0 -1050 -1210z m5130 -20
c144 -54 228 -185 228 -355 0 -62 -6 -96 -26 -149 -58 -152 -195 -305 -335
-374 -75 -36 -78 -37 -196 -37 -113 0 -123 2 -180 30 -108 54 -185 191 -185
328 0 151 64 293 189 418 90 90 143 122 242 149 89 24 181 20 263 -10z m-1672
9 c76 -16 138 -50 187 -104 39 -42 71 -99 71 -125 0 -7 -126 -10 -380 -10
l-381 0 31 45 c34 50 111 115 174 147 104 54 196 68 298 47z"/>
<path d="M7488 4233 c-9 -11 -29 -93 -48 -201 -43 -239 -56 -222 176 -222 169
0 174 1 188 23 7 12 26 102 42 201 l28 178 -23 19 c-21 17 -41 19 -186 19
-142 0 -164 -2 -177 -17z"/>
<path d="M17592 4232 c-12 -12 -26 -72 -50 -217 -19 -110 -36 -208 -38 -217
-4 -14 -16 -18 -59 -18 -64 0 -171 -31 -242 -71 l-53 -29 0 29 c0 53 -26 61
-187 61 -130 0 -145 -2 -163 -20 -11 -11 -20 -24 -20 -29 0 -5 -63 -354 -140
-774 -77 -421 -140 -779 -140 -795 0 -58 16 -64 181 -60 98 2 152 7 160 15 7
7 58 238 114 515 110 542 119 572 200 665 45 53 159 111 234 120 50 6 54 5 49
-13 -2 -10 -51 -299 -109 -641 -100 -597 -103 -623 -86 -640 16 -16 38 -18
182 -18 133 0 167 3 179 15 10 10 35 125 71 330 30 173 56 318 58 321 1 4 100
-143 220 -325 l218 -333 182 -6 c300 -10 534 -5 551 13 11 11 49 208 121 625
58 336 108 622 111 638 l6 27 169 0 c148 0 171 2 187 18 12 12 25 63 42 166
l24 148 -23 19 c-21 17 -41 19 -187 19 l-164 0 5 23 c14 61 65 375 65 399 0
53 -16 58 -194 58 -143 0 -165 -2 -178 -17 -10 -12 -29 -99 -52 -238 -20 -120
-38 -221 -40 -222 -3 -3 -163 -14 -181 -12 -56 5 -364 9 -381 5 -14 -4 -104
-96 -215 -222 -105 -118 -193 -213 -195 -211 -3 2 27 189 66 414 38 226 70
427 70 446 0 26 -6 39 -19 47 -11 6 -87 10 -175 10 -136 0 -158 -2 -174 -18z
m982 -669 c-19 -100 -18 -140 5 -153 11 -5 49 -10 85 -10 56 0 66 -3 65 -17 0
-10 -42 -268 -92 -573 l-92 -554 -233 374 c-129 206 -234 378 -235 381 -2 5
502 619 507 619 2 0 -3 -30 -10 -67z"/>
</g>
</svg>
