<?xml version="1.0" standalone="no"?>
<!DOCTYPE svg PUBLIC "-//W3C//DTD SVG 20010904//EN"
 "http://www.w3.org/TR/2001/REC-SVG-20010904/DTD/svg10.dtd">
<svg version="1.0" xmlns="http://www.w3.org/2000/svg"
 width="590.000000pt" height="140.000000pt" viewBox="0 0 590.000000 140.000000"
 preserveAspectRatio="xMidYMid meet">
<metadata>
Created by potrace 1.16, written by Peter Selinger 2001-2019
</metadata>
<g transform="translate(0.000000,140.000000) scale(0.100000,-0.100000)"
fill="#000000" stroke="none">
<path d="M187 1270 c-94 -17 -133 -62 -124 -142 9 -72 56 -146 162 -253 71
-72 244 -213 311 -253 6 -4 19 -32 28 -62 47 -146 162 -265 306 -317 64 -23
140 -37 140 -25 0 4 -24 33 -52 63 -47 48 -119 159 -103 159 3 0 36 -15 73
-34 154 -77 408 -160 583 -191 100 -18 243 -19 305 -4 150 38 137 177 -35 361
-91 97 -211 198 -235 198 -10 0 -16 -9 -16 -25 0 -19 25 -50 94 -119 109 -109
167 -207 150 -254 -38 -107 -263 -102 -597 15 -477 166 -967 521 -967 701 0
38 41 79 94 93 56 16 200 6 316 -21 52 -12 97 -24 99 -26 2 -2 -19 -28 -47
-59 -51 -56 -112 -163 -112 -197 0 -59 67 -144 162 -208 81 -54 88 -53 88 18
1 169 122 416 244 497 71 47 62 59 -41 53 -63 -4 -107 -13 -155 -32 l-67 -27
-108 31 c-187 53 -393 79 -496 60z"/>
<path d="M2267 1196 c-64 -24 -115 -63 -144 -113 -25 -44 -28 -57 -28 -143 0
-86 3 -100 29 -148 16 -29 54 -75 85 -104 140 -129 165 -156 184 -197 31 -69
10 -131 -44 -131 -40 0 -59 32 -59 102 l0 58 -106 0 -107 0 5 -73 c9 -132 78
-218 199 -247 91 -22 204 3 262 58 70 66 96 192 62 308 -15 55 -25 67 -155
194 -150 147 -167 176 -138 237 11 23 20 28 48 28 42 0 60 -28 60 -97 l0 -48
100 0 100 0 0 53 c0 114 -49 206 -134 249 -52 27 -165 34 -219 14z"/>
<path d="M2771 718 c-45 -260 -85 -481 -87 -490 -5 -16 5 -18 105 -18 61 0
111 2 111 4 0 25 92 751 95 755 3 2 5 2 5 -1 0 -14 80 -696 85 -725 l6 -33
104 0 c75 0 105 3 105 12 0 16 -159 928 -166 951 -5 15 -21 17 -143 17 l-137
0 -83 -472z"/>
<path d="M3280 1105 l0 -85 75 0 75 0 0 -405 0 -405 105 0 105 0 0 405 0 405
65 0 65 0 0 85 0 85 -245 0 -245 0 0 -85z"/>
<path d="M3892 767 l3 -423 27 -42 c58 -87 191 -129 315 -98 79 19 127 54 163
117 l25 44 3 413 3 412 -105 0 -105 0 -3 -393 c-3 -427 -3 -427 -58 -427 -60
0 -60 -2 -60 428 l0 392 -105 0 -106 0 3 -423z"/>
<path d="M4570 700 l0 -490 105 0 105 0 0 410 0 410 26 0 c66 0 94 -47 94
-155 0 -91 -18 -138 -61 -155 -16 -7 -29 -18 -29 -24 0 -6 26 -117 58 -246
l57 -235 109 -3 c99 -2 107 -1 102 15 -35 114 -116 396 -116 406 0 8 9 22 19
31 59 54 88 230 56 342 -13 47 -27 69 -68 109 -69 67 -100 75 -296 75 l-161 0
0 -490z"/>
<path d="M5240 700 l0 -490 106 0 107 0 -7 343 c-3 188 -4 338 -1 332 4 -9
155 -662 155 -671 0 -2 61 -4 135 -4 l135 0 0 490 0 490 -101 0 -101 0 6 -347
c3 -192 4 -343 2 -338 -3 6 -37 154 -76 330 -39 176 -74 328 -76 338 -5 15
-21 17 -145 17 l-139 0 0 -490z"/>
</g>
</svg>
