<?xml version="1.0" encoding="utf-8"?>
<svg version="1.1" baseProfile="tiny" id="Layer_1" xmlns="http://www.w3.org/2000/svg" xmlns:xlink="http://www.w3.org/1999/xlink"
	 x="0px" y="0px" width="512px" height="512px" viewBox="180 156 152 200" xml:space="preserve">
<g>
	<g>
		<path fill="#010202" d="M350.524,354.065H161.476c-1.955,0-3.539-1.582-3.539-3.537V161.474c0-1.955,1.584-3.539,3.539-3.539
			h189.049c1.957,0,3.539,1.584,3.539,3.539v189.054C354.063,352.483,352.481,354.065,350.524,354.065z M165.017,346.982h181.97
			V165.013h-181.97V346.982z"/>
	</g>
	<path fill="#010202" d="M334.099,170.974H178.202c-3.909,0-7.078,3.167-7.078,7.076v155.896c0,3.913,3.169,7.082,7.078,7.082
		h155.897c3.909,0,7.076-3.169,7.076-7.082V178.05C341.175,174.141,338.008,170.974,334.099,170.974z"/>
	<g>
		<g>
			<rect x="250.246" y="301.915" fill="#FFFFFF" width="11.809" height="11.798"/>
			<rect x="265.244" y="301.915" fill="#FFFFFF" width="11.804" height="11.798"/>
			<rect x="265.244" y="316.906" fill="#FFFFFF" width="11.804" height="11.806"/>
			<rect x="250.246" y="316.906" fill="#FFFFFF" width="11.809" height="11.806"/>
		</g>
		<polygon fill="#FFFFFF" points="312.208,310.56 269.313,257.421 210.108,306.687 210.108,328.712 218.01,322.16 266.929,281.468
			298.732,320.855 300.754,323.545 321.949,323.545 		"/>
		<polygon fill="#FFFFFF" points="210.108,295.498 210.108,181.535 215.901,181.535 225.373,181.535 277.23,181.535 277.23,198.493
			225.373,198.493 225.373,261.725 266.027,228.875 288.737,228.875 		"/>
	</g>
</g>
</svg>
