<svg version="1.1" id="Layer_1" xmlns="http://www.w3.org/2000/svg" x="0px" y="0px" viewBox="0 0 120.8 87.2" xml:space="preserve"><g><g><path d="M68.7,26.6c-0.7,0-1.2,0.6-1.2,1.2v8.4c0,0.7,0.6,1.2,1.2,1.2h8.4c0.7,0,1.2-0.6,1.2-1.2v-8.4 			c0-0.7-0.6-1.2-1.2-1.2H68.7z M77.1,37h-8.4c-0.4,0-0.7-0.4-0.7-0.7v-8.4c0-0.4,0.4-0.7,0.7-0.7h8.4c0.4,0,0.7,0.4,0.7,0.7v8.4 			C77.8,36.6,77.4,37,77.1,37z"></path></g><g><circle cx="69.3" cy="28.1" r="0.4"></circle></g><g><circle cx="70.5" cy="28.1" r="0.4"></circle></g><g><circle cx="71.9" cy="28.1" r="0.4"></circle></g><g><path d="M76.9,30.4c0-0.2,0-0.4-0.1-0.7c-0.1-0.1-0.2-0.2-0.3-0.1c-0.1,0.1-0.2,0.2-0.1,0.3c0.1,0.2,0.1,0.3,0.1,0.5 			c0,0.7-0.6,1.3-1.3,1.3c-0.7,0-1.3-0.6-1.3-1.3s0.6-1.3,1.3-1.3c0.2,0,0.3,0,0.5,0.1c0.1,0.1,0.3,0,0.3-0.1c0.1-0.1,0-0.3-0.1-0.3 			c-0.2-0.1-0.4-0.1-0.7-0.1c-1,0-1.9,0.8-1.9,1.9s0.8,1.9,1.9,1.9C76,32.3,76.9,31.5,76.9,30.4z"></path></g><g><path d="M75.7,35.5c-0.1-0.1-0.2-0.1-0.4-0.1c-0.1,0-0.2,0.1-0.4,0.1c-0.6,0-1-0.4-1-1c0-0.6,0.4-1,1-1 			c0.6,0,1,0.5,1,1c0,0.1,0,0.2-0.1,0.4c-0.1,0.1,0,0.3,0.1,0.3c0.1,0.1,0.3,0,0.3-0.1c0.1-0.2,0.1-0.4,0.1-0.5 			c0-0.8-0.7-1.6-1.6-1.6s-1.3,0.5-1.3,1.5c0,0.8,0.7,1.6,1.6,1.6c0.2,0,0.4,0,0.5-0.1C75.6,35.8,75.7,35.7,75.7,35.5z"></path></g><g><path d="M72.1,34.5c0-0.8-0.7-1.6-1.6-1.6S69,33.6,69,34.5c0,0.2,0,0.4,0.1,0.5c0.1,0.1,0.2,0.2,0.3,0.1 			c0.1-0.1,0.2-0.2,0.1-0.3c0-0.1-0.1-0.2-0.1-0.4c0-0.6,0.4-1,1-1c0.6,0,1,0.4,1,1c0,0.6-0.5,1-1,1c-0.1,0-0.2,0-0.4-0.1 			c-0.1-0.1-0.3,0-0.3,0.1c-0.1,0.1,0,0.3,0.1,0.3c0.2,0.1,0.4,0.1,0.5,0.1C71.5,36,72.1,35.3,72.1,34.5z"></path></g><g><path d="M72.1,30.7c0-0.8-0.7-1.6-1.6-1.6c-0.2,0-0.4,0-0.5,0.1c-0.1,0.1-0.2,0.2-0.1,0.3c0.1,0.1,0.2,0.2,0.3,0.1 			c0.1,0,0.2-0.1,0.4-0.1c0.6,0,1,0.4,1,1c0,0.6-0.4,1-1,1c-0.6,0-1-0.4-1-1c0-0.1,0-0.2,0.1-0.4c0.1-0.1,0-0.3-0.1-0.3 			c-0.1-0.1-0.3,0-0.3,0.1c-0.1,0.2-0.1,0.4-0.1,0.5c0,0.8,0.7,1.6,1.6,1.6C71.5,32.3,72.1,31.6,72.1,30.7z"></path></g><g><path d="M69,57.8v5c0,0.2,0.2,0.4,0.4,0.4h6.7c0.2,0,0.4-0.2,0.4-0.4v-5c0-0.2-0.2-0.4-0.4-0.4h-6.7 			C69.2,57.4,69,57.6,69,57.8z M76.2,57.8C76.2,57.8,76.3,57.8,76.2,57.8l0.1,5.1c0,0,0,0.1-0.1,0.1h-1v-5.2H76.2z M74.8,57.8V63 			h-1.1v-5.2H74.8z M73.4,57.8V63h-1.1v-5.2H73.4z M72,57.8V63h-1.1v-5.2H72z M70.5,57.8V63h-1c0,0-0.1,0-0.1-0.1v-5 			c0,0,0-0.1,0.1-0.1C69.5,57.8,70.5,57.8,70.5,57.8z"></path></g><g><path d="M68.9,45.8v4.8c0,0.4,0.2,0.8,0.4,1c0.3,0.3,0.6,0.4,1,0.4h4.9c0.2,0,0.4,0,0.6-0.1l0.3,0.5v0.1 			c0,0.3,0.2,0.5,0.5,0.5s0.5-0.2,0.5-0.5c0-0.3-0.2-0.5-0.5-0.5h-0.1l-0.3-0.4l0,0c0.3-0.3,0.4-0.6,0.4-1v-4.8c0-0.4-0.2-0.8-0.4-1 			c-0.3-0.3-0.6-0.4-1-0.4h-4.9c-0.4,0-0.8,0.2-1,0.4C69,45,68.9,45.3,68.9,45.8z M75.3,44.7c0.3,0,0.5,0.1,0.7,0.3 			c0.2,0.2,0.3,0.4,0.3,0.7v4.8c0,0.3-0.1,0.5-0.3,0.7l-0.8-1c-0.1-0.1-0.2-0.1-0.3,0s-0.1,0.2,0,0.3l0.7,1c-0.1,0-0.2,0-0.3,0h-4.9 			c-0.3,0-0.5-0.1-0.7-0.3s-0.3-0.4-0.3-0.7v-4.8c0-0.3,0.1-0.5,0.3-0.7c0.2-0.2,0.4-0.3,0.7-0.3H75.3z"></path></g><g><path d="M72.1,54.8c0,0.4,0.3,0.8,0.8,0.8c0.4,0,0.8-0.3,0.8-0.8S73.4,54,72.9,54S72.1,54.4,72.1,54.8z M73.2,54.8 			c0,0.2-0.2,0.4-0.4,0.4c-0.2,0-0.4-0.2-0.4-0.4c0-0.2,0.2-0.4,0.4-0.4C73,54.4,73.2,54.6,73.2,54.8z"></path></g><g><path d="M72.1,49.6c0,0.4,0.3,0.8,0.8,0.8c0.4,0,0.8-0.3,0.8-0.8c0-0.4-0.3-0.8-0.8-0.8 			C72.4,48.9,72.1,49.2,72.1,49.6z M73.2,49.6c0,0.2-0.2,0.4-0.4,0.4c-0.2,0-0.4-0.2-0.4-0.4c0-0.2,0.2-0.4,0.4-0.4 			C73,49.3,73.2,49.4,73.2,49.6z"></path></g><g><path d="M70.8,53c-0.6,0-1.2,0.5-1.2,1.2v1.1c0,0.6,0.5,1.2,1.2,1.2h4c0.6,0,1.2-0.5,1.2-1.2v-1.1 			c0-0.6-0.5-1.2-1.2-1.2H70.8z M74.9,53.5c0.4,0,0.7,0.3,0.7,0.7v1.1c0,0.4-0.3,0.7-0.7,0.7h-4c-0.4,0-0.7-0.3-0.7-0.7v-1.1 			c0-0.4,0.3-0.7,0.7-0.7H74.9z"></path></g><g><path d="M67.5,42.7c-0.1,0-0.2,0-0.2,0.2v21.9c0,0.1,0,0.2,0.2,0.2h10.6c0.1,0,0.3,0,0.3-0.2V42.9 			c0-0.1,0-0.2-0.2-0.2H67.5z M77.9,64.5H67.7V43h10.2V64.5z"></path></g><g><g><path d="M66.6,14.6c-1.3,0-2.5,1.2-2.5,2.6V75c0,1.3,1.1,2.5,2.5,2.5H79c1.3,0,2.5-1.1,2.5-2.5V17.1 				c0-1.3-1.1-2.5-2.5-2.5H66.6L66.6,14.6z M79,76.6H66.6c-0.9,0-1.7-0.7-1.7-1.7V17.1c0-0.9,0.7-1.7,1.7-1.7H79 				c0.9,0,1.7,0.7,1.7,1.7v57.8C80.8,75.9,80,76.6,79,76.6z"></path></g></g><g><g><g><path d="M41.7,14.6c-1.3,0-2.5,1.2-2.5,2.6V75c0,1.3,1.1,2.5,2.5,2.5h12.4c1.3,0,2.5-1.1,2.5-2.5V17.1 					c0-1.3-1.1-2.5-2.5-2.5H41.7L41.7,14.6z M54.2,76.6H41.7c-0.9,0-1.7-0.7-1.7-1.7V17.1c0-0.9,0.7-1.7,1.7-1.7h12.4 					c0.9,0,1.7,0.7,1.7,1.7v57.8C55.9,75.9,55.1,76.6,54.2,76.6z"></path></g></g></g><g></g></g></svg>
