<svg version="1.1" id="Layer_1" xmlns="http://www.w3.org/2000/svg"  x="0px" y="0px" viewBox="0 0 120.8 87.2" xml:space="preserve"><g><g><path d="M74.9,51.1h-6.1c-0.5,0-1,0.4-1,1v6.1c0,0.5,0.4,1,1,1h6.1c0.5,0,1-0.4,1-1v-6.1 			C75.8,51.5,75.4,51.1,74.9,51.1z M75.4,58.3c0,0.2-0.2,0.4-0.4,0.4h-6.3c-0.2,0-0.4-0.2-0.4-0.4V52c0-0.2,0.2-0.4,0.4-0.4H75 			c0.2,0,0.4,0.2,0.4,0.4V58.3z"></path><circle cx="74.4" cy="57.9" r="0.3"></circle><circle cx="73.4" cy="57.9" r="0.3"></circle><circle cx="72.5" cy="57.9" r="0.3"></circle><path d="M70.3,54.9c-0.7,0-1.3,0.6-1.3,1.3c0,0.2,0,0.3,0.1,0.5c0,0.1,0.1,0.1,0.2,0.1c0.1,0,0.1-0.1,0.1-0.2 			c0-0.1-0.1-0.2-0.1-0.3c0-0.5,0.4-1,1-1c0.5,0,1,0.4,1,1c0,0.5-0.4,1-1,1c-0.1,0-0.2,0-0.3-0.1c-0.1,0-0.2,0-0.2,0.1 			s0,0.2,0.1,0.2c0.2,0.1,0.3,0.1,0.5,0.1c0.7,0,1.3-0.6,1.3-1.3C71.7,55.5,71,54.9,70.3,54.9z"></path><path d="M70.3,54.5c0.6,0,1.1-0.5,1.1-1.1c0-0.6-0.5-1.1-1.1-1.1c-0.1,0-0.3,0-0.4,0.1c-0.1,0-0.1,0.1-0.1,0.2 			c0,0.1,0.1,0.1,0.2,0.1c0.1,0,0.2,0,0.3,0c0.4,0,0.7,0.3,0.7,0.7s-0.3,0.7-0.7,0.7s-0.7-0.3-0.7-0.7c0-0.1,0-0.2,0.1-0.3 			c0-0.1,0-0.2-0.1-0.2c-0.1,0-0.2,0-0.2,0.1c0,0.1-0.1,0.3-0.1,0.4C69.2,54,69.7,54.5,70.3,54.5z"></path><path d="M73.4,54.5c0.6,0,1.1-0.5,1.1-1.1c0-0.1,0-0.3-0.1-0.4c0-0.1-0.1-0.1-0.2-0.1c-0.1,0-0.1,0.1-0.1,0.2 			s0.1,0.2,0.1,0.3c0,0.4-0.3,0.7-0.7,0.7c-0.4,0-0.7-0.3-0.7-0.7s0.3-0.7,0.7-0.7c0.1,0,0.2,0,0.3,0.1c0.1,0,0.2,0,0.2-0.1 			c0-0.1,0-0.2-0.1-0.2c-0.1-0.1-0.3-0.1-0.4-0.1c-0.6,0-1.1,0.5-1.1,1.1C72.4,54,72.8,54.5,73.4,54.5z"></path><path d="M73.4,55.3c0.4,0,0.7,0.3,0.7,0.7c0,0.1,0,0.2-0.1,0.3c0,0.1,0,0.2,0.1,0.2s0.2,0,0.2-0.1s0.1-0.3,0.1-0.4 			c0-0.6-0.5-1.1-1.1-1.1c-0.6,0-1.1,0.5-1.1,1.1s0.5,1.1,1.1,1.1c0.1,0,0.3,0,0.4-0.1c0.1,0,0.1-0.1,0.1-0.2c0-0.1-0.1-0.1-0.2-0.1 			s-0.2,0.1-0.3,0.1c-0.4,0-0.7-0.3-0.7-0.7C72.7,55.6,73,55.3,73.4,55.3z"></path></g><g><g><path d="M57.2,47.7c-1,0-1.9,0.8-1.9,1.9v13.8c0,1,0.8,1.9,1.9,1.9h28.6c1,0,1.9-0.8,1.9-1.9V49.6 				c0-1-0.8-1.9-1.9-1.9H57.2z M85.8,64.6H57.2c-0.7,0-1.3-0.6-1.3-1.3V49.6c0-0.7,0.6-1.3,1.3-1.3h28.6c0.7,0,1.3,0.6,1.3,1.3v13.8 				C87.1,64.1,86.5,64.6,85.8,64.6z"></path></g></g><g><path d="M69.4,32h4c0.2,0,0.4-0.2,0.4-0.4v-5.5c0-0.2-0.2-0.4-0.4-0.4h-4c-0.2,0-0.4,0.2-0.4,0.4v5.5 			C69,31.8,69.2,32,69.4,32z M73.6,31.5c0,0.1-0.1,0.1-0.1,0.1h-4c-0.1,0-0.1-0.1-0.1-0.1v-0.8h4.2V31.5z M73.5,29.5v0.9h-4.1v-0.9 			H73.5z M69.4,29.3v-0.9h4.1v0.9H69.4z M73.5,28.1h-4.1v-0.9h4.1V28.1z M69.3,26.1c0-0.1,0.1-0.1,0.1-0.1h4v0.9h-4.1V26.1z"></path><path d="M59.6,32.2h3.9c0.3,0,0.6-0.1,0.9-0.4c0.2-0.2,0.4-0.5,0.4-0.9v-3.9c0-0.2,0-0.3-0.1-0.5l0.4-0.3h0.1 			c0.2,0,0.4-0.2,0.4-0.4s-0.2-0.4-0.4-0.4c-0.2,0-0.4,0.2-0.4,0.4c0,0,0,0,0,0.1L64.5,26c-0.2-0.2-0.5-0.4-0.9-0.4h-3.9 			c-0.3,0-0.6,0.1-0.9,0.4c-0.2,0.2-0.4,0.5-0.4,0.9v3.9c0,0.3,0.1,0.6,0.4,0.9C58.9,32,59.2,32.2,59.6,32.2z M58.8,26.8 			c0-0.3,0.1-0.5,0.2-0.6c0.2-0.1,0.4-0.2,0.6-0.2h3.9c0.2,0,0.4,0.1,0.5,0.3l-0.8,0.6c0,0.1-0.1,0.2,0,0.3c0.1,0,0.2,0.1,0.3,0 			l0.8-0.6c0,0,0,0.1,0,0.2v3.9c0,0.3-0.1,0.5-0.2,0.6c-0.2,0.1-0.4,0.2-0.6,0.2h-3.9c-0.3,0-0.5-0.1-0.6-0.2 			c-0.1-0.2-0.2-0.4-0.2-0.6C58.8,30.7,58.8,26.8,58.8,26.8z"></path><path d="M75.1,24.2H57.4c-0.2,0-0.3,0.1-0.3,0.2v8.7c0,0.2,0.2,0.3,0.3,0.3h17.7c0.2,0,0.3-0.2,0.3-0.3v-8.6 			C75.4,24.3,75.2,24.2,75.1,24.2z M74.8,32.8H57.6v-8.1h17.2V32.8z"></path><path d="M62.8,29.4c0.3,0,0.6-0.3,0.6-0.6c0-0.4-0.2-0.6-0.6-0.6c-0.3,0-0.6,0.3-0.6,0.6 			C62.1,29.1,62.4,29.4,62.8,29.4z M62.8,28.5c0.2,0,0.3,0.1,0.3,0.3s-0.1,0.3-0.3,0.3s-0.3-0.1-0.3-0.3S62.6,28.5,62.8,28.5z"></path><path d="M66.9,29.4c0.3,0,0.6-0.3,0.6-0.6c0.1-0.4-0.2-0.6-0.6-0.6c-0.3,0-0.6,0.3-0.6,0.6 			C66.3,29.1,66.6,29.4,66.9,29.4z M66.9,28.5c0.2,0,0.3,0.1,0.3,0.3s-0.1,0.3-0.3,0.3c-0.2,0-0.3-0.1-0.3-0.3S66.7,28.5,66.9,28.5z 			"></path><path d="M65.6,30.4c0,0.5,0.4,0.9,0.9,0.9h0.9c0.5,0,0.9-0.4,0.9-0.9v-3.3c0-0.5-0.4-0.9-0.9-0.9h-0.9 			c-0.5,0-0.9,0.4-0.9,0.9V30.4z M66,27.1c0-0.3,0.2-0.5,0.5-0.5h0.9c0.3,0,0.5,0.2,0.5,0.5v3.3c0,0.3-0.2,0.5-0.5,0.5h-0.9 			c-0.3,0-0.5-0.2-0.5-0.5V27.1z"></path></g><g><path d="M35,22.1c-1,0-1.9,0.7-1.9,1.7v33.8c0,0.9,0.8,1.7,1.9,1.7h9.5c1,0,1.9-0.7,1.9-1.7V35.4h39.4 			c1,0,1.9-0.8,1.9-1.9V24c0-1-0.8-1.9-1.9-1.9H35z M44.5,58.6H35c-0.7,0-1.2-0.5-1.2-1.1V24c0-0.7,0.6-1.2,1.2-1.2h50.8 			c0.7,0,1.2,0.6,1.2,1.2v9.5c0,0.7-0.6,1.2-1.2,1.2h-40v22.7C45.8,58.1,45.2,58.6,44.5,58.6z"></path></g></g></svg>
