<svg version="1.1" id="Layer_1" xmlns="http://www.w3.org/2000/svg" x="0px" y="0px" viewBox="0 0 120.8 87.1" xml:space="preserve"><g><g><g><path d="M64.7,23.9h-8.4c-0.7,0-1.3,0.6-1.3,1.3v8.4c0,0.7,0.6,1.3,1.3,1.3h8.4c0.6,0.2,1.3-0.5,1.3-1.2v-8.5 				C66,24.5,65.4,23.9,64.7,23.9z M65.3,33.6c0,0.3-0.3,0.6-0.6,0.6c-0.1,0-8.4,0-8.4,0c-0.3,0-0.6-0.3-0.6-0.6v-8.4 				c0-0.3,0.3-0.6,0.6-0.6h8.4c0.3,0,0.6,0.3,0.6,0.6V33.6z"></path><circle cx="56.7" cy="25.6" r="0.4"></circle><circle cx="58.1" cy="25.6" r="0.4"></circle><circle cx="59.3" cy="25.6" r="0.4"></circle><path d="M63.9,27c-0.1,0.1-0.2,0.2-0.1,0.3c0.1,0.2,0.2,0.4,0.2,0.6c0,0.7-0.7,1.5-1.4,1.5c-0.7,0-1.3-0.8-1.3-1.5 				s0.7-1.5,1.4-1.5c0.2,0,0.3,0,0.5,0.1c0.1,0.1,0.3,0,0.3-0.1c0.1-0.1,0-0.3-0.1-0.3c-0.2-0.1-0.4-0.1-0.7-0.1 				c-1,0-1.9,0.8-1.9,1.9c0,1,0.8,1.9,1.9,1.9c0.9-0.1,1.7-1,1.7-2.1c0-0.2,0-0.4-0.1-0.7C64.1,27,64,26.9,63.9,27z"></path><path d="M62.3,30.5c-0.9,0-1.6,0.7-1.6,1.6c0,0.8,0.6,1.5,1.5,1.6c0.2,0,0.5,0,0.6-0.1c0.4-0.3,0.4-0.4,0.4-0.6 				c-0.1-0.1-0.2-0.2-0.3-0.1c-0.1,0-0.2,0.4-0.6,0.4c-0.6,0-1.2-0.6-1.2-1.2c0-0.6,0.6-1.1,1.2-1.1s1.1,0.6,1.1,1.1 				c0,0.1,0,0.2-0.1,0.4c-0.1,0.1,0,0.3,0.1,0.3c0.1,0.1,0.3,0,0.3-0.1c0.1-0.2,0.1-0.4,0.1-0.5C63.9,31.3,63.2,30.5,62.3,30.5z"></path><path d="M58,30.4c-0.8,0-1.6,0.7-1.6,1.6c0,0.2,0,0.4,0.1,0.5c0.1,0.1,0.2,0.2,0.3,0.1c0.1-0.1,0.2-0.2,0.1-0.3 				c0-0.1-0.1-0.2-0.1-0.4c0-0.6,0.6-1.1,1.2-1.1c0.6,0,1.2,0.4,1.2,1c0.1,0.6-0.1,1.2-1.3,1.2c-0.1,0-0.3-0.1-0.5-0.2 				c-0.1-0.1-0.3,0-0.3,0.1c-0.1,0.1,0,0.3,0.1,0.3c0.2,0.1,0.4,0.1,0.5,0.1c1.2,0.2,1.9-0.5,1.9-1.3S58.9,30.4,58,30.4z"></path><path d="M58,26.6c-0.2,0-0.4,0-0.5,0.1c-0.1,0.1-0.2,0.2-0.1,0.3c0.1,0.1,0.2,0.2,0.3,0.1c0.1,0,0.2-0.1,0.4-0.1 				c0.6,0,1.1,0.6,1.1,1.2c0,0.6-0.5,1.1-1.1,1.1c-0.6,0-1.1-0.6-1.1-1.2c0-0.1,0.1-0.3,0.2-0.5c0.1-0.1,0-0.3-0.1-0.3 				c-0.1-0.1-0.3,0-0.3,0.1c-0.3,0.3-0.3,0.5-0.3,0.7c0,0.8,0.7,1.6,1.6,1.6c0.8,0.1,1.5-0.6,1.5-1.5C59.6,27.4,58.9,26.6,58,26.6z"></path><path d="M63.6,54.9h-6.7c-0.2,0-0.4,0.2-0.4,0.4v5c0,0.2,0.2,0.4,0.4,0.4h6.7c0.2,0,0.4-0.2,0.4-0.4v-5 				C64,55.1,63.8,54.9,63.6,54.9z M58,60.4h-1c0,0-0.1,0-0.1-0.1v-5c0,0,0-0.1,0.1-0.1h1V60.4z M59.4,60.4h-1.1v-5.2h1.1V60.4z 				 M60.9,60.4h-1.1v-5.2h1.1V60.4z M62.3,60.4h-1.1v-5.2h1.1V60.4z M63.6,60.4l-0.9,0v-5.2l1,0L63.6,60.4 				C63.7,60.3,63.7,60.4,63.6,60.4z"></path><path d="M57.7,49.4h5c0.2,0,0.4,0,0.6-0.1l0.3,0.5V50c0,0.3,0.2,0.5,0.5,0.5c0.3,0,0.5-0.2,0.5-0.5s-0.2-0.5-0.5-0.5 				H64l-0.3-0.4c0.3-0.3,0.4-0.6,0.4-1v-4.8c0-0.4-0.2-0.8-0.4-1c-0.3-0.3-0.6-0.4-1-0.4h-4.9c-0.4,0-0.8,0.2-1,0.4 				c-0.3,0.1-0.5,0.5-0.5,1V48c0,0.4,0.2,0.8,0.4,1C57,49.3,57.3,49.4,57.7,49.4z M56.8,43.2c0-0.3,0.1-0.5,0.3-0.7 				c0.2-0.2,0.4-0.3,0.7-0.3h4.9c0.3,0,0.5,0.1,0.7,0.3c0.2,0.2,0.3,0.4,0.3,0.7V48c0,0.3-0.1,0.5-0.3,0.7l-0.8-1 				c-0.1-0.1-0.2-0.1-0.3,0c-0.1,0.1-0.1,0.2,0,0.3l0.7,1c-0.1,0-0.2,0-0.3,0h-4.9c-0.3,0-0.5-0.1-0.7-0.3c-0.2-0.2-0.3-0.4-0.3-0.7 				V43.2z"></path><path d="M60.3,53.1c0.4,0,0.8-0.3,0.8-0.8s-0.3-0.8-0.8-0.8c-0.4-0.1-0.8,0.3-0.8,0.8C59.5,52.7,59.8,53.1,60.3,53.1 				z M60.3,51.9c0.3,0,0.4,0.2,0.4,0.4s-0.2,0.4-0.4,0.4s-0.4-0.2-0.4-0.4S60.1,51.9,60.3,51.9z"></path><path d="M60.3,47.9c0.4,0,0.8-0.3,0.8-0.8c0-0.4-0.3-0.8-0.8-0.8c-0.4,0-0.8,0.4-0.8,0.8 				C59.5,47.5,59.8,47.9,60.3,47.9z M60.3,46.7c0.3,0.1,0.4,0.2,0.4,0.4s-0.2,0.4-0.4,0.4s-0.4-0.2-0.4-0.4S60.1,46.7,60.3,46.7z"></path><path d="M62.3,54c1,0,1.2-0.5,1.2-1.2v-1.1c0-0.6-0.5-1.2-1.2-1.2h-4c-0.6,0-1.2,0.5-1.2,1.2v1.1 				c0,0.6,0.4,1.2,1.2,1.2H62.3z M57.5,53v-1.2c0-0.5,0.4-0.9,0.8-0.9h4.1l0,0c0.4,0,0.7,0.3,0.7,0.8V53c0,0.5-0.3,0.6-0.7,0.6h-4.1 				C58.1,53.6,57.5,53.5,57.5,53z"></path><path d="M65.7,40.1H55.1c-0.2,0-0.3,0.1-0.3,0.3v21.9c0,0.2,0.1,0.3,0.3,0.3h10.6c0.1-0.1,0.3-0.2,0.3-0.4V40.4 				C66,40.2,65.9,40.1,65.7,40.1z M65.3,61.8h-9.9V40.7h9.9V61.8z"></path><path d="M66.5,12.1H54.1v0.1c-1.3,0-2.5,1.1-2.5,2.5v57.8c0,1.3,1.1,2.5,2.5,2.5h12.4c1.3,0,2.5-1.1,2.5-2.5V14.6 				C69,13.3,67.9,12.1,66.5,12.1z M68.2,72.4c0,0.9-0.7,1.7-1.6,1.7H54.1c-0.9,0-1.7-0.7-1.7-1.7V14.6c0-0.9,0.7-1.7,1.7-1.7h12.4 				c0.9,0,1.7,0.7,1.7,1.7V72.4z"></path></g></g></g></svg>
