<svg version="1.1" id="Layer_1" xmlns="http://www.w3.org/2000/svg"  x="0px" y="0px" viewBox="0 0 120.8 87.1" xml:space="preserve"><g><path d="M43.8,37.1c0,0.4,0.3,0.7,0.7,0.7s0.7-0.3,0.7-0.7s-0.3-0.7-0.7-0.7C44.1,36.3,43.8,36.6,43.8,37.1z 		 M44.7,37.1c0,0.2-0.1,0.3-0.3,0.3c-0.2,0-0.3-0.1-0.3-0.3s0.1-0.3,0.3-0.3S44.7,36.8,44.7,37.1z"></path><path d="M40.7,38.8c0,0.2,0.2,0.4,0.4,0.4h0.1l0.3,0.3l0,0c-0.2,0.2-0.4,0.5-0.4,0.9v4.1c0,0.3,0.1,0.7,0.4,0.9 		c0.2,0.2,0.5,0.4,0.9,0.4h4.1c0.3,0,0.7-0.1,0.9-0.4c0.2-0.2,0.4-0.5,0.4-0.9v-4.1c0-0.3-0.1-0.7-0.4-0.9c-0.2-0.2-0.5-0.4-0.9-0.4 		h-4.1c-0.2,0-0.4,0-0.5,0.1l-0.3-0.4v-0.1c0-0.2-0.2-0.4-0.4-0.4C40.9,38.4,40.7,38.6,40.7,38.8z M46.6,39.6c0.2,0,0.4,0.1,0.6,0.2 		c0.2,0.2,0.2,0.4,0.2,0.6v4.1c0,0.2-0.1,0.4-0.2,0.6c-0.2,0.2-0.4,0.2-0.6,0.2h-4.1c-0.2,0-0.4-0.1-0.6-0.2 		c-0.2-0.2-0.2-0.4-0.2-0.6v-4.1c0-0.2,0.1-0.4,0.2-0.6l0.7,0.9c0.1,0.1,0.2,0.1,0.3,0s0.1-0.2,0-0.3l-0.6-0.8c0.1,0,0.2,0,0.3,0 		C42.6,39.6,46.6,39.6,46.6,39.6z"></path><path d="M41.7,36.5v0.9c0,0.5,0.4,1,1,1h3.4c0.5,0,1-0.4,1-1v-0.9c0-0.5-0.4-1-1-1h-3.4C42.1,35.5,41.7,36,41.7,36.5z 		 M46.2,36c0.3,0,0.6,0.3,0.6,0.6v0.9c0,0.3-0.3,0.6-0.6,0.6h-3.4c-0.3,0-0.6-0.3-0.6-0.6v-0.9c0-0.3,0.3-0.6,0.6-0.6H46.2z"></path><path d="M49.3,47.2V28.6c0-0.2-0.1-0.3-0.3-0.3h-9c-0.2,0-0.3,0.1-0.3,0.3v18.7c0,0.2,0.1,0.3,0.3,0.3h9 		C49.2,47.4,49.3,47.3,49.3,47.2z M40.3,46.9V28.8h8.5v18h-8.5V46.9z"></path><path d="M41.2,30.2v4.2c0,0.2,0.2,0.4,0.4,0.4h5.8c0.2,0,0.4-0.2,0.4-0.4v-4.2c0-0.2-0.2-0.4-0.4-0.4h-5.8 		C41.4,29.8,41.2,29.9,41.2,30.2z M47.3,30.1C47.4,30.1,47.4,30.1,47.3,30.1l0.1,4.4c0,0,0,0.1-0.1,0.1h-0.9v-4.4h0.9V30.1z 		 M46.2,30.1v4.4h-0.9v-4.4H46.2z M44.9,30.1v4.4H44v-4.4H44.9z M43.7,30.1v4.4h-0.9v-4.4H43.7z M42.4,30.1v4.4h-0.9 		c0,0-0.1,0-0.1-0.1v-4.2c0,0,0-0.1,0.1-0.1h0.9V30.1z"></path><path d="M43.8,41.4c0,0.4,0.3,0.7,0.7,0.7s0.7-0.3,0.7-0.7s-0.3-0.7-0.7-0.7C44.1,40.8,43.8,41.1,43.8,41.4z 		 M44.7,41.4c0,0.2-0.1,0.3-0.3,0.3c-0.2,0-0.3-0.1-0.3-0.3c0-0.2,0.1-0.3,0.3-0.3S44.7,41.2,44.7,41.4z"></path><path d="M80.8,40.8v-6.8c0-0.6-0.5-1.1-1.1-1.1h-6.8c-0.6,0-1.1,0.5-1.1,1.1v6.8c0,0.6,0.5,1.1,1.1,1.1h6.8 		C80.3,41.9,80.8,41.4,80.8,40.8z M72.8,41.3c-0.3,0-0.5-0.2-0.5-0.5v-6.8c0-0.3,0.2-0.5,0.5-0.5h6.8c0.3,0,0.5,0.2,0.5,0.5v6.8 		c0,0.3-0.2,0.5-0.5,0.5H72.8z"></path><circle cx="79.4" cy="34.6" r="0.3"></circle><circle cx="79.4" cy="35.6" r="0.3"></circle><circle cx="79.4" cy="36.6" r="0.3"></circle><path d="M78.2,40.3c0-0.1-0.2-0.2-0.3-0.1c-0.1,0-0.3,0.1-0.4,0.1c-0.6,0-1.1-0.5-1.1-1.1c0-0.6,0.5-1.1,1.1-1.1 		c0.6,0,1.1,0.5,1.1,1.1c0,0.1,0,0.3-0.1,0.4c0,0.1,0,0.2,0.1,0.3c0.1,0,0.2,0,0.3-0.1c0.1-0.2,0.1-0.4,0.1-0.5 		c0-0.8-0.7-1.6-1.6-1.6c-0.8,0-1.6,0.7-1.6,1.6c0,0.8,0.7,1.6,1.6,1.6c0.2,0,0.4,0,0.5-0.1C78.2,40.5,78.3,40.4,78.2,40.3z"></path><path d="M75.5,39.1c0-0.7-0.5-1.2-1.2-1.2c-0.7,0-1.2,0.5-1.2,1.2c0,0.2,0,0.3,0.1,0.4c0,0.1,0.2,0.2,0.3,0.1 		c0.1,0,0.2-0.2,0.1-0.3c0-0.1-0.1-0.2-0.1-0.3c0-0.4,0.4-0.8,0.8-0.8c0.4,0,0.8,0.4,0.8,0.8c0,0.4-0.4,0.8-0.8,0.8 		c-0.1,0-0.2,0-0.3-0.1c-0.1,0-0.2,0-0.3,0.1c0,0.1,0,0.2,0.1,0.3c0.1,0.1,0.3,0.1,0.4,0.1C75,40.4,75.5,39.7,75.5,39.1z"></path><path d="M75.5,35.6c0-0.7-0.5-1.2-1.2-1.2c-0.2,0-0.3,0-0.4,0.1c-0.1,0-0.2,0.2-0.1,0.3c0,0.1,0.2,0.2,0.3,0.1 		c0.1,0,0.2-0.1,0.3-0.1c0.4,0,0.8,0.4,0.8,0.8c0,0.4-0.4,0.8-0.8,0.8c-0.4,0-0.8-0.4-0.8-0.8c0-0.1,0-0.2,0.1-0.3 		c0-0.1,0-0.2-0.1-0.3c-0.1,0-0.2,0-0.3,0.1s-0.1,0.3-0.1,0.4c0,0.7,0.5,1.2,1.2,1.2S75.5,36.2,75.5,35.6z"></path><path d="M78.5,35.6c0-0.2,0-0.3-0.1-0.4c0-0.1-0.2-0.2-0.3-0.1c-0.1,0-0.2,0.2-0.1,0.3c0,0.1,0.1,0.2,0.1,0.3 		c0,0.4-0.4,0.8-0.8,0.8c-0.4,0-0.8-0.4-0.8-0.8c0-0.4,0.4-0.8,0.8-0.8c0.1,0,0.2,0,0.3,0.1c0.1,0,0.2,0,0.3-0.1 		c0-0.1,0-0.2-0.1-0.3c-0.1-0.1-0.3-0.1-0.4-0.1c-0.7,0-1.2,0.5-1.2,1.2c0,0.7,0.5,1.2,1.2,1.2C78,36.8,78.5,36.2,78.5,35.6z"></path><g><path d="M39.4,18.6c-1.1,0-2,0.9-2,2v46.7c0,1.1,0.9,2,2,2h41.8c1.1,0,2.1-0.9,2.1-2V57.3c0-0.1,0-0.1,0-0.2v-0.1 			V20.6c0-1.1-0.9-2-2-2H71.3c-1.1,0-2,0.9-2,2v34.7H51.5V20.6c0-1.1-0.9-2-2-2H39.4z M69.2,68.7h-0.1h-0.3H39.4 			c-0.7,0-1.3-0.6-1.3-1.3V20.6c0-0.7,0.6-1.3,1.3-1.3h10.1c0.7,0,1.3,0.6,1.3,1.3v35.3h19.1v-0.1v-0.6V20.6c0-0.7,0.6-1.3,1.3-1.3 			h10.1c0.7,0,1.3,0.6,1.3,1.3v46.7c0,0.7-0.6,1.3-1.3,1.3L69.2,68.7z"></path></g></g></svg>
