<svg xmlns="http://www.w3.org/2000/svg" width="120.8" height="87.1"><g stroke-width="2" fill-rule="nonzero" stroke="currentColor" fill="none"><path d="M12 2v20a4 4 0 0 0 4 4h16a4 4 0 0 0 4-4V2zM4 6h4c1.108 0 2 .892 2 2v10c0 1.108-.892 2-2 2H4c-1.108 0-2-.892-2-2V8c0-1.108.892-2 2-2zM2-44.5a.5.5 0 0 0-.5.5v9a.5.5 0 0 0 .5.5h44a.5.5 0 0 0 .5-.5v-9a.5.5 0 0 0-.5-.5zm54 0a.5.5 0 0 0-.5.5v9a.5.5 0 0 0 .5.5h44a.5.5 0 0 0 .5-.5v-9a.5.5 0 0 0-.5-.5zM32-62h38v9H32zM84 52h16c1.108 0 2 .892 2 2v3c0 1.108-.892 2-2 2H84c-1.108 0-2-.892-2-2v-3c0-1.108.892-2 2-2zM2 52h16c1.108 0 2 .892 2 2v3c0 1.108-.892 2-2 2H2c-1.108 0-2-.892-2-2v-3c0-1.108.892-2 2-2zm-19-22v12a8 8 0 0 0 8 8h118a8 8 0 0 0 8-8V30zm128.5-73v69.13M-10.5-43v69.13M-11-71h124c1.108 0 2 .892 2 2v22c0 1.108-.892 2-2 2H-11c-1.108 0-2-.892-2-2v-22c0-1.108.892-2 2-2zM58 6h4c1.108 0 2 .892 2 2v10c0 1.108-.892 2-2 2h-4c-1.108 0-2-.892-2-2V8c0-1.108.892-2 2-2zm8-4v20a4 4 0 0 0 4 4h16a4 4 0 0 0 4-4V2zM12 2v20a4 4 0 0 0 4 4h16a4 4 0 0 0 4-4V2zM4 6h4c1.108 0 2 .892 2 2v10c0 1.108-.892 2-2 2H4c-1.108 0-2-.892-2-2V8c0-1.108.892-2 2-2zm16.5-40.5h6c1.108 0 2 .892 2 2v6c0 1.108-.892 2-2 2h-6c-1.108 0-2-.892-2-2v-6c0-1.108.892-2 2-2zm55 0h6c1.108 0 2 .892 2 2v6c0 1.108-.892 2-2 2h-6c-1.108 0-2-.892-2-2v-6c0-1.108.892-2 2-2z" transform="translate(42.49 50.7) scale(.35821)"></path></g></svg>
