<svg version="1.1" id="Layer_1" xmlns="http://www.w3.org/2000/svg" x="0px" y="0px" viewBox="0 0 120.8 87.1" xml:space="preserve"><g><g><path d="M68.1,58c-0.8,0-1.6,0.7-1.6,1.6s0.7,1.6,1.6,1.6s1.6-0.7,1.6-1.6C69.5,58.7,68.9,58,68.1,58z M63.3,58 			c-0.8,0-1.6,0.7-1.6,1.6s0.7,1.6,1.6,1.6s1.6-0.7,1.6-1.6C64.7,58.7,64.1,58,63.3,58z M58.5,58c-0.8,0-1.6,0.7-1.6,1.6 			s0.7,1.6,1.6,1.6s1.6-0.7,1.6-1.6S59.4,58,58.5,58z M53.8,58c-0.8,0-1.6,0.7-1.6,1.6s0.7,1.6,1.6,1.6s1.6-0.7,1.6-1.6 			C55.3,58.7,54.6,58,53.8,58z"></path></g><g><g><g><path d="M35.7,22.9c-1.2,0-2.4,1-2.4,2.4v37.1c0,1.2,1,2.4,2.4,2.4h49.6c1.2,0,2.4-1,2.4-2.4V25.3 					c0-1.2-1-2.4-2.4-2.4H35.7z M85.3,63.6H35.7c-0.7,0-1.2-0.6-1.2-1.3v-37c0-0.7,0.6-1.3,1.2-1.3h49.6c0.7,0,1.2,0.6,1.2,1.3v37.1 					C86.5,63.1,86,63.6,85.3,63.6z"></path></g></g></g></g><path d="M46.3,37.1l0.3-0.4c0.7-0.9,1-2,1-3.2c0-1.1-0.3-2.2-1-3.2L46.3,30l0.6-0.6c0.2-0.2,0.2-0.4,0-0.5 	c-0.2-0.1-0.4-0.2-0.5,0l-0.6,0.6l-0.4-0.3c-2-1.4-4.5-1.4-6.4-0.1l-0.5,0.3l-0.6-0.7c-0.1-0.1-0.1-0.1-0.3-0.1 	c-0.1,0-0.2,0-0.3,0.1s-0.2,0.2-0.2,0.3c0,0.1,0,0.2,0.1,0.3l0.6,0.6l-0.3,0.4c-1.3,1.9-1.3,4.4,0,6.4l0.3,0.4l-0.6,0.6 	c-0.1,0.1-0.1,0.2-0.1,0.3s0,0.2,0.1,0.3c0.2,0.2,0.4,0.2,0.5,0l0.6-0.6l0.4,0.3c1.9,1.3,4.4,1.3,6.4,0l0.4-0.3l0.6,0.6 	c0.2,0.2,0.4,0.2,0.5,0c0.1-0.1,0.1-0.2,0.1-0.3s0-0.2-0.1-0.3L46.3,37.1z M44.8,35.5c-0.2-0.2-0.4-0.2-0.6,0 	c-0.2,0.2-0.2,0.4,0,0.6l1.1,1.1l-0.7,0.4c-0.8,0.4-1.6,0.7-2.5,0.7l0,0c-0.9,0-1.7-0.3-2.5-0.7l-0.8-0.4l1.1-1.1 	C40,36.1,40,36,40,35.8c0-0.1-0.1-0.3-0.1-0.3c-0.1-0.1-0.2-0.1-0.3-0.1c-0.2,0-0.1,0.1-0.2,0.2l-1.1,1.1L37.9,36 	c-0.4-0.8-0.7-1.6-0.7-2.5c0-0.8,0.3-1.7,0.7-2.5l0.4-0.8l1.1,1.1c0.1,0.1,0.2,0.1,0.3,0.1l0,0c0.1,0,0.3-0.1,0.3-0.1 	c0.2-0.2,0.2-0.4,0-0.6l-1.2-1.1l0.7-0.4c1.5-0.9,3.4-0.9,5,0l0.7,0.4l-1,1.2c-0.1,0-0.1,0.2-0.1,0.3s0.1,0.3,0.1,0.3 	c0.2,0.2,0.4,0.2,0.6,0l1.2-1.2l0.4,0.7c0.4,0.8,0.7,1.6,0.7,2.5s-0.3,1.7-0.7,2.5L46,36.7L44.8,35.5z"></path><path d="M44.9,52.8l0.2-0.3c0.5-0.7,0.7-1.4,0.7-2.2c0-0.8-0.2-1.5-0.7-2.2l-0.2-0.3l0.4-0.4c0.1-0.1,0.1-0.3,0-0.4 	c-0.1-0.1-0.3-0.1-0.4,0l-0.4,0.4l-0.3-0.2c-1.4-1-3.1-1-4.5-0.1l-0.4,0.2L39,46.8c-0.1-0.1-0.1-0.1-0.2-0.1c-0.1,0-0.1,0-0.2,0.1 	c-0.1,0.1-0.1,0.1-0.1,0.2c0,0.1,0,0.1,0.1,0.2l0.4,0.4l-0.2,0.3c-0.9,1.3-0.9,3.1,0,4.5l0.2,0.3l-0.4,0.4c-0.1,0.1-0.1,0.1-0.1,0.2 	c0,0.1,0,0.1,0.1,0.2c0.1,0.1,0.3,0.1,0.4,0l0.4-0.4l0.3,0.2c1.3,0.9,3.1,0.9,4.5,0l0.3-0.2l0.4,0.4c0.1,0.1,0.3,0.1,0.4,0 	c0.1-0.1,0.1-0.1,0.1-0.2c0-0.1,0-0.1-0.1-0.2L44.9,52.8z M43.8,51.7c-0.1-0.1-0.3-0.1-0.4,0c-0.2,0.1-0.1,0.3,0,0.4l0.8,0.8 	l-0.5,0.3c-0.5,0.3-1.1,0.5-1.7,0.5l0,0c-0.6,0-1.2-0.2-1.7-0.5l-0.5-0.3l0.8-0.8c0.1-0.1,0.1-0.1,0.1-0.2c0-0.1-0.1-0.2-0.1-0.2 	c-0.1-0.1-0.1-0.1-0.2-0.1c-0.1,0-0.1,0.1-0.1,0.1l-0.8,0.7L39,52c-0.3-0.5-0.5-1.1-0.5-1.7s0.2-1.2,0.5-1.7l0.3-0.5l0.8,0.8 	c0.1,0.1,0.1,0.1,0.2,0.1l0,0c0.1,0,0.2-0.1,0.2-0.1c0.1-0.1,0.1-0.3,0-0.4l-0.8-0.7l0.5-0.3c1.1-0.7,2.4-0.7,3.5,0l0.5,0.3 	l-0.7,0.8c-0.1,0-0.1,0.1-0.1,0.2s0.1,0.2,0.1,0.2c0.1,0.1,0.3,0.1,0.4,0l0.8-0.8l0.3,0.5c0.3,0.5,0.5,1.1,0.5,1.7s-0.2,1.2-0.5,1.7 	l-0.3,0.5L43.8,51.7z"></path><path d="M65.4,46.9l0.5-0.6c1-1.3,1.4-2.9,1.4-4.4c0-1.5-0.5-3.1-1.4-4.4l-0.5-0.6l0.9-0.9c0.3-0.3,0.3-0.6,0-0.8 	c-0.3-0.1-0.6-0.3-0.8,0l-0.9,0.9L64,35.6c-2.8-2-6.3-2-9-0.1l-0.8,0.4l-0.9-1c-0.1-0.1-0.2-0.1-0.4-0.1s-0.3,0-0.4,0.1 	c-0.1,0.1-0.3,0.3-0.3,0.5c0,0.1,0,0.3,0.1,0.4l0.9,0.9l-0.4,0.6c-1.9,2.6-1.9,6.2,0,9l0.5,0.6l-0.9,0.9c-0.1,0.1-0.1,0.3-0.1,0.4 	c0,0.1,0,0.3,0.1,0.4c0.3,0.3,0.6,0.3,0.8,0l0.9-0.9l0.6,0.5c2.6,1.9,6.2,1.9,9,0l0.6-0.5l0.9,0.9c0.3,0.3,0.6,0.3,0.8,0 	c0.1-0.1,0.1-0.3,0.1-0.4c0-0.1,0-0.3-0.1-0.4L65.4,46.9z M63.2,44.7c-0.3-0.3-0.6-0.3-0.9,0c-0.3,0.3-0.3,0.6,0,0.9l1.5,1.5l-1,0.6 	c-1.1,0.6-2.3,1-3.5,1l0,0c-1.2,0-2.4-0.4-3.5-1l-1.1-0.6l1.5-1.5c0.1-0.1,0.1-0.3,0.1-0.5c0-0.1-0.1-0.4-0.1-0.5 	c-0.1-0.1-0.3-0.1-0.5-0.1c-0.3,0-0.1,0.1-0.3,0.3l-1.6,1.5l-0.6-1c-0.6-1.1-1-2.3-1-3.5s0.4-2.4,1-3.5l0.6-1.1l1.5,1.5 	c0.1,0.1,0.3,0.1,0.5,0.1l0,0c0.1,0,0.4-0.1,0.5-0.1c0.3-0.3,0.3-0.6,0-0.9L55,36.5l1-0.6c2.1-1.3,4.8-1.3,7,0l1,0.6l-1.4,1.7 	c-0.1,0-0.1,0.3-0.1,0.4c0,0.1,0.1,0.4,0.1,0.5c0.3,0.3,0.6,0.3,0.9,0l1.7-1.7l0.6,1c0.6,1.1,1,2.3,1,3.5s-0.4,2.4-1,3.5L65,46.2 	L63.2,44.7z"></path><path d="M83,37.8l0.4-0.5c0.9-1.2,1.3-2.6,1.3-4.1c0-1.4-0.4-2.8-1.3-4.1L83,28.6l0.8-0.8c0.2-0.2,0.2-0.5,0-0.7 	c-0.2-0.1-0.5-0.2-0.7,0l-0.8,0.8l-0.5-0.4c-2.5-1.9-5.8-1.9-8.2-0.1l-0.7,0.4l-0.8-0.9c-0.1-0.1-0.2-0.1-0.3-0.1 	c-0.1,0-0.2,0-0.3,0.1c-0.1,0.1-0.2,0.2-0.2,0.4c0,0.1,0,0.2,0.1,0.3l0.8,0.8l-0.3,0.5c-1.7,2.4-1.7,5.7,0,8.2l0.4,0.5l-0.8,0.8 	c-0.1,0.1-0.1,0.2-0.1,0.3s0,0.2,0.1,0.3c0.2,0.2,0.5,0.2,0.7,0l0.8-0.8l0.5,0.4c2.4,1.7,5.7,1.7,8.2,0l0.5-0.4l0.8,0.8 	c0.2,0.2,0.5,0.2,0.7,0c0.1-0.1,0.1-0.2,0.1-0.3s0-0.2-0.1-0.3L83,37.8z M81,35.8c-0.2-0.2-0.5-0.2-0.8,0c-0.3,0.2-0.2,0.5,0,0.8 	l1.4,1.4l-0.9,0.5c-1,0.5-2.1,0.9-3.2,0.9l0,0c-1.1,0-2.2-0.3-3.2-0.9l-1-0.5l1.4-1.4c0.1-0.1,0.1-0.2,0.1-0.4 	c0-0.1-0.1-0.3-0.1-0.4c-0.1-0.1-0.2-0.1-0.4-0.1c-0.2,0-0.1,0.1-0.2,0.2l-1.4,1.4l-0.5-0.9c-0.5-1-0.9-2.1-0.9-3.2s0.3-2.2,0.9-3.2 	l0.5-1l1.4,1.4c0.1,0.1,0.2,0.1,0.4,0.1l0,0c0.1,0,0.3-0.1,0.4-0.1c0.2-0.2,0.2-0.5,0-0.8l-1.5-1.4l0.9-0.5c2-1.2,4.4-1.2,6.4,0 	l0.9,0.5l-1.3,1.5c-0.1,0-0.1,0.2-0.1,0.3c0,0.1,0.1,0.3,0.1,0.4c0.2,0.2,0.5,0.2,0.8,0l1.5-1.5l0.5,0.9c0.5,1,0.9,2.1,0.9,3.2 	s-0.3,2.2-0.9,3.2l-0.5,1L81,35.8z"></path><path d="M81.9,54l0.3-0.4c0.7-0.9,1-2,1-3.2c0-1.1-0.3-2.2-1-3.2l-0.3-0.4l0.6-0.6c0.2-0.2,0.2-0.4,0-0.5 	c-0.2-0.1-0.4-0.2-0.5,0l-0.6,0.6L81,46c-2-1.4-4.5-1.4-6.4-0.1l-0.5,0.3l-0.6-0.7c-0.1-0.1-0.1-0.1-0.3-0.1c-0.1,0-0.2,0-0.3,0.1 	c-0.1,0.1-0.2,0.2-0.2,0.3c0,0.1,0,0.2,0.1,0.3l0.6,0.6l-0.3,0.4c-1.3,1.9-1.3,4.4,0,6.4l0.3,0.4l-0.6,0.6c-0.1,0.1-0.1,0.2-0.1,0.3 	c0,0.1,0,0.2,0.1,0.3c0.2,0.2,0.4,0.2,0.5,0l0.6-0.6l0.4,0.3c1.9,1.3,4.4,1.3,6.4,0l0.4-0.3l0.6,0.6c0.2,0.2,0.4,0.2,0.5,0 	c0.1-0.1,0.1-0.2,0.1-0.3c0-0.1,0-0.2-0.1-0.3L81.9,54z M80.4,52.4c-0.2-0.2-0.4-0.2-0.6,0c-0.2,0.2-0.2,0.4,0,0.6l1.1,1.1l-0.7,0.4 	c-0.8,0.4-1.6,0.7-2.5,0.7l0,0c-0.9,0-1.7-0.3-2.5-0.7l-0.8-0.4l1.1-1.1c0.1-0.1,0.1-0.2,0.1-0.3c0-0.1-0.1-0.3-0.1-0.3 	c-0.1-0.1-0.2-0.1-0.3-0.1c-0.2,0-0.1,0.1-0.2,0.2L74,53.5l-0.4-0.7c-0.4-0.8-0.7-1.6-0.7-2.5s0.3-1.7,0.7-2.5l0.4-0.8l1.1,1.1 	c0.1,0.1,0.2,0.1,0.3,0.1l0,0c0.1,0,0.3-0.1,0.3-0.1c0.2-0.2,0.2-0.4,0-0.6l-1.2-1.1l0.7-0.4c1.5-0.9,3.4-0.9,5,0l0.7,0.4l-1,1.2 	c-0.1,0-0.1,0.2-0.1,0.3c0,0.1,0.1,0.3,0.1,0.3c0.2,0.2,0.4,0.2,0.6,0l1.2-1.2l0.4,0.7c0.4,0.8,0.7,1.6,0.7,2.5s-0.3,1.7-0.7,2.5 	l-0.4,0.8L80.4,52.4z"></path></svg>
