<svg version="1.1" id="Layer_1" xmlns="http://www.w3.org/2000/svg" x="0px" y="0px" viewBox="0 0 120.8 87.2" xml:space="preserve"><g><g><g><g><path d="M50.5,40.3c-0.2,0-0.5,0.2-0.5,0.4c-0.2,0.8-0.4,1.8-0.4,2.6c0,4.5,3.1,8.2,6.9,8.2c2.6,0,5-1.8,6.2-4.5 					c0.1-0.1,0.1-0.3,0-0.4c-0.1-0.1-0.2-0.2-0.3-0.3c-0.1-0.1-0.3-0.1-0.4,0c-0.1,0.1-0.2,0.2-0.3,0.3c-1,2.3-3,3.7-5.2,3.7 					c-3.2,0-5.8-3.1-5.8-7c0-0.5,0-1,0.1-1.6l0.1-0.3h7c0.3,0,0.6-0.2,0.6-0.6c0-0.3-0.2-0.6-0.6-0.6h-7.5V40.3z"></path></g></g><g><g><path d="M56.5,51.2c-0.3,0-0.6,0.2-0.6,0.6v8c0,0.3,0.2,0.6,0.6,0.6c0.4,0,0.6-0.2,0.6-0.6v-8 					C57.2,51.4,56.8,51.2,56.5,51.2z"></path></g></g><g><g><path d="M52.1,59.9c-0.3,0-0.6,0.2-0.6,0.6c0,0.3,0.2,0.6,0.6,0.6H61c0.3,0,0.6-0.2,0.6-0.6c0-0.3-0.2-0.6-0.6-0.6 					H52.1z"></path></g></g><g><g><path d="M63.4,34.1c-0.2,0-0.4,0.1-0.5,0.3c-1.5,2.3-3.2,5.5-3.2,6.9c0,2.1,1.7,3.7,3.7,3.7c2.1,0,3.7-1.7,3.7-3.7 					c0-1.5-1.8-4.7-3.2-6.9C63.8,34.2,63.6,34.1,63.4,34.1z M63.4,43.8c-1.5,0-2.6-1.1-2.6-2.6c0-1,1.6-3.8,2.3-5l0.3-0.6l0.3,0.6 					c0.6,1.1,2.3,3.9,2.3,5C66,42.7,64.8,43.8,63.4,43.8z"></path></g></g><g><g><path d="M68,45.6c-0.2,0-0.4,0.1-0.5,0.3c-1.5,2.3-3.2,5.6-3.2,6.9c0,2.1,1.7,3.7,3.7,3.7s3.7-1.7,3.7-3.7 					c0-1.5-1.8-4.7-3.2-6.9C68.5,45.7,68.2,45.6,68,45.6z M68,55.3c-1.5,0-2.6-1.1-2.6-2.6c0-1,1.6-3.8,2.3-5l0.3-0.6l0.3,0.6 					c0.6,1.1,2.3,3.9,2.3,5C70.6,54.2,69.5,55.3,68,55.3z"></path></g></g></g><g><g><g><path d="M47.9,25.6c-0.2,0.1-0.4,0.3-0.4,0.6c-0.1,0.2,0,0.5,0.1,0.7c0.1,0.2,0.3,0.4,0.6,0.4 					c0.2,0.1,0.5,0,0.7-0.1c0.5-0.3,0.6-0.8,0.3-1.3C49,25.5,48.4,25.4,47.9,25.6L47.9,25.6z"></path></g></g><g><g><path d="M52.8,25.6c-0.5,0.3-0.6,0.9-0.3,1.3c0.3,0.5,0.8,0.6,1.3,0.4c0.5-0.3,0.6-0.8,0.3-1.3 					C53.9,25.5,53.3,25.4,52.8,25.6L52.8,25.6z"></path></g></g></g><g><g><g><path d="M65.7,25.6c-0.5,0.3-0.6,0.9-0.3,1.3c0.3,0.5,0.8,0.6,1.3,0.4c0.5-0.3,0.6-0.8,0.3-1.3 					C66.7,25.5,66.1,25.4,65.7,25.6L65.7,25.6z"></path></g></g><g><g><path d="M70.5,25.6c-0.5,0.3-0.6,0.9-0.3,1.3c0.3,0.5,0.8,0.6,1.3,0.4c0.5-0.3,0.6-0.8,0.3-1.3 					c-0.1-0.2-0.3-0.4-0.6-0.4C71,25.5,70.7,25.5,70.5,25.6L70.5,25.6z"></path></g></g></g><g><g><path d="M45,29.9c-0.3,0-0.5,0.2-0.5,0.6s0.2,0.6,0.5,0.6h30.8c0.3,0,0.5-0.2,0.5-0.6s-0.2-0.6-0.5-0.6H45z"></path></g></g><g><g><path d="M46.8,21.5c-2.3,0-4.2,1.9-4.2,4.2v35.8c0,2.3,1.9,4.2,4.2,4.2h27c2.3,0,4.2-1.9,4.2-4.2V25.8 				c0-2.3-1.9-4.2-4.2-4.2H46.8z M73.8,64.5h-27c-1.7,0-3-1.3-3-3V25.8c0-1.7,1.3-3,3-3h27c1.7,0,3,1.3,3,3v35.8 				C77,63.2,75.5,64.5,73.8,64.5z"></path></g></g></g></svg>
