<svg version="1.1" id="Layer_1" xmlns="http://www.w3.org/2000/svg" x="0px" y="0px" viewBox="0 0 120.7 87.1" xml:space="preserve"><g><g><path d="M54.1,51.8L54.1,51.8c-0.2,0-0.3,0.1-0.4,0.2c-1.8,1.9-1.9,4.5-0.1,6.8c0.5,0.7,0.7,1.6,0.6,2.4 			c-0.2,1.1-0.9,2-1.2,2.2c-0.3,0.2-0.4,0.4-0.3,0.7c0.1,0.3,0.4,0.4,0.7,0.3c0.4-0.1,1.3-1.1,1.9-2.4c0.4-1.2,0.2-2.6-0.6-3.7 			c-1.3-2-1.3-4,0.1-5.5l0,0c0.2-0.2,0.2-0.5,0-0.7C54.5,51.9,54.3,51.8,54.1,51.8z"></path></g><g><path d="M60.7,51.8L60.7,51.8c-0.2,0-0.3,0.1-0.4,0.2c-1.8,1.9-1.9,4.5-0.1,6.8c0.5,0.7,0.7,1.6,0.6,2.4 			c-0.2,1.1-0.9,2-1.2,2.2c-0.3,0.2-0.4,0.4-0.3,0.7c0.1,0.3,0.4,0.4,0.7,0.3c0.4-0.1,1.3-1.1,1.9-2.4c0.4-1.2,0.2-2.6-0.6-3.7 			c-1.3-2-1.3-4,0.1-5.5l0,0c0.1-0.1,0.1-0.2,0.1-0.4c0-0.1-0.1-0.3-0.2-0.4C61,51.9,60.8,51.8,60.7,51.8z"></path></g><g><path d="M66.9,51.8L66.9,51.8c-0.2,0-0.3,0.1-0.4,0.2c-1.8,1.9-1.9,4.5-0.1,6.8c0.5,0.7,0.7,1.6,0.6,2.4 			c-0.2,1.1-0.9,2-1.2,2.2c-0.3,0.2-0.4,0.4-0.3,0.7c0.1,0.3,0.4,0.4,0.7,0.3c0.4-0.1,1.3-1.1,1.9-2.4c0.4-1.2,0.2-2.6-0.6-3.7 			c-1.3-2-1.3-4,0.1-5.5l0,0c0.1-0.1,0.1-0.2,0.1-0.4c0-0.1-0.1-0.3-0.2-0.4C67.2,51.9,67,51.8,66.9,51.8z"></path></g><g><path d="M53.2,22.5c-0.6,0-1.1,0.5-1.1,1.1v9L39,40.2c-0.3,0.2-0.6,0.6-0.6,1v7.2c0,0.6,0.5,1.1,1.1,1.1h41.6 			c0.6,0,1.1-0.5,1.1-1.1v-7.2c0-0.3-0.3-0.8-0.6-1l0,0l-13.1-7.5v-9c0-0.6-0.5-1.1-1.1-1.1C67.4,22.5,53.2,22.5,53.2,22.5z 			 M80.4,48.8H40.3c-0.5,0-0.9-0.4-0.9-0.9v-5.9h42v5.9C81.3,48.4,80.9,48.8,80.4,48.8z M80.9,41H39.6l12.3-7h16.6L80.9,41z 			 M66.9,32.9H53.6c-0.5,0-0.9-0.4-0.9-0.9v-7.7c0-0.5,0.4-0.9,0.9-0.9h13.3c0.5,0,0.9,0.4,0.9,0.9V32 			C67.8,32.5,67.4,32.9,66.9,32.9z"></path></g></g></svg>
