<svg version="1.1" id="Layer_1" xmlns="http://www.w3.org/2000/svg" x="0px" y="0px" viewBox="0 0 120.8 87.2" xml:space="preserve"><path d="M69.6,17.4H51.2c-0.3,0-0.3,0.3-0.3,0.4c0,0.2,0.3,0.4,0.3,0.4h18.3c0.3,0,0.3-0.3,0.3-0.4 	C69.9,17.7,69.7,17.4,69.6,17.4z"></path><path d="M69.7,71.3H51.2c-0.3,0-0.3,0.3-0.3,0.4c0,0.1,0.3,0.4,0.3,0.4h18.3c0.3,0,0.3-0.3,0.3-0.4 	C69.9,71.6,69.8,71.3,69.7,71.3z"></path><g><path d="M54.6,34.9c-0.3,0-0.4,0.2-0.4,0.4v9.7c0,0.2,0.3,0.4,0.4,0.4c0.1,0,0.4-0.2,0.4-0.4v-9.7 		C55.1,35.2,54.9,34.9,54.6,34.9z"></path><path d="M69.4,17.5c-0.1,0-0.4,0.3-0.4,0.3v8.3c0,0-17.3,0-17.3,0v-8.3c0-0.3-0.3-0.3-0.4-0.3s-0.4,0.3-0.4,0.3v9v6.3 		v23.3v5v10.4c0,0.3,0.3,0.3,0.4,0.3s0.4-0.2,0.4-0.3v-9.6H69v9.6c0,0.3,0.3,0.3,0.4,0.3c0.1,0,0.4-0.2,0.4-0.3V61.4v-5V33.1v-6.3 		v-9C69.8,17.5,69.5,17.5,69.4,17.5z M51.7,61.4v-5V33.1v-6.2h17.2L69,61.4H51.7z"></path></g></svg>
