<svg version="1.1" id="Layer_1" xmlns="http://www.w3.org/2000/svg" x="0px" y="0px" viewBox="0 0 120.8 87.2" xml:space="preserve"><g><g><g><path d="M42.9,21.3c-1.2,0-2.4,1-2.4,2.4v39.8c0,1.2,1,2.4,2.4,2.4h34.8c1.2,0,2.4-1,2.4-2.4V23.7 				c0-1.2-1-2.4-2.4-2.4H42.9z M77.8,64.8H42.9c-0.7,0-1.3-0.6-1.3-1.3V23.7c0-0.7,0.6-1.3,1.3-1.3h34.8c0.7,0,1.3,0.6,1.3,1.3v39.8 				C79,64.2,78.5,64.8,77.8,64.8z"></path></g></g><g><g><path d="M49,37.7c-1.2,0-2.4,1-2.4,2.4v16.6c0,1.2,1,2.4,2.4,2.4h22.8c1.2,0,2.4-1,2.4-2.4V40.1c0-1.2-1-2.4-2.4-2.4 				C71.8,37.7,49,37.7,49,37.7z M71.8,58H49c-0.7,0-1.3-0.6-1.3-1.3V40.1c0-0.7,0.6-1.3,1.3-1.3h22.8c0.7,0,1.3,0.6,1.3,1.3v16.6 				C73.1,57.4,72.5,58,71.8,58z"></path></g></g><g><g><path d="M79.3,33.3H41.5c-0.5,0-0.9-0.4-0.9-0.9c0-0.5,0.4-0.9,0.9-0.9h37.8c0.5,0,0.9,0.4,0.9,0.9 				C80.1,32.9,79.7,33.3,79.3,33.3z"></path><path d="M79.3,33.6H41.5c-0.7,0-1.3-0.6-1.3-1.3c0-0.7,0.6-1.3,1.3-1.3h37.8c0.7,0,1.3,0.6,1.3,1.3 				C80.7,33,79.9,33.6,79.3,33.6z M41.5,31.9c-0.3,0-0.5,0.2-0.5,0.5c0,0.3,0.2,0.5,0.5,0.5h37.8c0.3,0,0.5-0.2,0.5-0.5 				c0-0.3-0.2-0.5-0.5-0.5H41.5z"></path></g></g><g><g><g><path d="M57.8,42.4c-0.1,0-0.3,0.1-0.4,0.2c-1.8,1.9-1.8,4.4-0.1,6.7c0.5,0.7,0.7,1.6,0.6,2.3 					c-0.2,1.1-0.9,2-1.2,2.2c-0.3,0.2-0.4,0.4-0.3,0.6c0.1,0.3,0.4,0.4,0.6,0.3c0.4-0.1,1.3-1,1.8-2.4c0.4-1.2,0.2-2.6-0.6-3.7 					c-1.3-2-1.3-3.9,0.1-5.4c0.2-0.2,0.2-0.5,0-0.7C58,42.4,57.9,42.4,57.8,42.4z"></path></g></g><g><g><path d="M64.1,42.4c-0.1,0-0.3,0.1-0.4,0.2c-1.8,1.9-1.8,4.4-0.1,6.7c0.5,0.7,0.7,1.6,0.6,2.3 					c-0.2,1.1-0.9,2-1.2,2.2c-0.3,0.2-0.4,0.4-0.3,0.6c0.1,0.3,0.4,0.4,0.6,0.3c0.4-0.1,1.3-1,1.8-2.4c0.4-1.2,0.2-2.6-0.6-3.7 					c-1.3-2-1.3-3.9,0.1-5.4c0.1-0.1,0.1-0.2,0.1-0.4c0-0.1-0.1-0.3-0.2-0.4C64.4,42.4,64.3,42.4,64.1,42.4z"></path></g></g></g><g><g><path d="M45,25.7c-0.5,0.3-0.7,1-0.4,1.6c0.3,0.5,1,0.7,1.6,0.4c0.5-0.3,0.7-1,0.4-1.6C46.3,25.6,45.5,25.4,45,25.7 				L45,25.7z"></path></g></g><g><g><path d="M51.5,25.7c-0.5,0.3-0.7,1-0.4,1.6c0.3,0.5,1,0.7,1.6,0.4c0.5-0.3,0.7-1,0.4-1.6 				C52.8,25.6,52.2,25.4,51.5,25.7L51.5,25.7z"></path></g></g><g><g><path d="M58.2,25.7c-0.5,0.3-0.7,1-0.4,1.6c0.3,0.5,1,0.7,1.6,0.4c0.5-0.3,0.7-1,0.4-1.6 				C59.3,25.6,58.7,25.4,58.2,25.7L58.2,25.7z"></path></g></g><g><g><path d="M64.7,25.7c-0.5,0.3-0.7,1-0.4,1.6c0.3,0.5,1,0.7,1.6,0.4c0.5-0.3,0.7-1,0.4-1.6 				C65.8,25.6,65.2,25.4,64.7,25.7L64.7,25.7z"></path></g></g><g><g><path d="M74.9,25.7c-0.5,0.3-0.7,1-0.4,1.6c0.3,0.5,1,0.7,1.6,0.4c0.5-0.3,0.7-1,0.4-1.6 				C76.1,25.6,75.4,25.4,74.9,25.7L74.9,25.7z"></path></g></g></g></svg>
