<svg id="Layer_1_1_" enable-background="new 0 0 64 64" height="512" viewBox="0 0 64 64" width="512" xmlns="http://www.w3.org/2000/svg"><path d="m16 57c0 2.757 2.243 5 5 5h34c2.757 0 5-2.243 5-5v-50c0-2.757-2.243-5-5-5h-34c-2.757 0-5 2.243-5 5v33h2v-33c0-1.654 1.346-3 3-3h34c1.654 0 3 1.346 3 3v50c0 1.654-1.346 3-3 3h-34c-1.654 0-3-1.346-3-3v-8h-2z"/><path d="m20 53c0 .552.448 1 1 1h34c.552 0 1-.448 1-1v-46c0-.552-.448-1-1-1h-34c-.552 0-1 .448-1 1v33h2v-32h32v44h-32v-3h-2z"/><path d="m33 56h10v2h-10z"/><path d="m3 19v40c0 1.654 1.346 3 3 3s3-1.346 3-3v-46c0-.155-.036-.309-.105-.447l-2-4c-.339-.678-1.45-.678-1.789 0l-2 4c-.07.138-.106.292-.106.447v4h2v-3.764l1-2 1 2v39.764h-2v-34zm4 36v4c0 .551-.449 1-1 1s-1-.449-1-1v-4z"/><path d="m7 2h-1c-.552 0-1 .448-1 1v1h2z"/><path d="m19.11 47v-2h-1.108c-.229 0-.456-.02-.675-.057l-.335 1.972c.328.056.667.085 1.008.085z"/><path d="m12 36.284h2v1.955h-2z"/><path d="m12 8.919h2v1.955h-2z"/><path d="m11.307 5.749c.296.435.501.915.608 1.428l1.958-.41c-.162-.771-.469-1.492-.914-2.145z"/><path d="m12 28.466h2v1.955h-2z"/><path d="m12 16.738h2v1.955h-2z"/><path d="m12 12.829h2v1.955h-2z"/><path d="m12 32.375h2v1.955h-2z"/><path d="m12 24.557h2v1.955h-2z"/><path d="m12 20.647h2v1.955h-2z"/><path d="m11.3 2.989c-.659-.435-1.386-.731-2.16-.88l-.378 1.963c.514.099.998.296 1.436.585z"/><path d="m21.064 45h1.955v2h-1.955z"/><path d="m14 40.194h-2v.806c0 .46.052.919.156 1.364l1.948-.453c-.069-.296-.104-.603-.104-.911z"/><path d="m14.813 46.084 1.064-1.693c-.446-.28-.827-.639-1.132-1.066l-1.627 1.164c.458.639 1.028 1.176 1.695 1.595z"/><path d="m52 15v-4c0-.552-.448-1-1-1h-4v2h3v3z"/><path d="m24 11v4h2v-3h3v-2h-4c-.552 0-1 .448-1 1z"/><path d="m29 16c-.552 0-1 .448-1 1v2h-1c-.552 0-1 .448-1 1v7c0 .552.448 1 1 1h4 14 4c.552 0 1-.448 1-1v-7c0-.552-.448-1-1-1h-1v-2c0-.552-.448-1-1-1zm1 10h-2v-5h2zm2-2h12v2h-12zm16 2h-2v-5h2zm-3-7c-.552 0-1 .448-1 1v2h-12v-2c0-.552-.448-1-1-1h-1v-1h16v1z"/><path d="m50 37v-4c0-.552-.448-1-1-1h-14c-.552 0-1 .448-1 1v4c0 .552.448 1 1 1h4.586l-2.293 2.293 1.414 1.414 3.293-3.293 3.293 3.293 1.414-1.414-2.293-2.293h4.586c.552 0 1-.448 1-1zm-2-1h-12v-2h12z"/><path d="m20.585 42.841c-.02.422.228.811.618.971l3.672 1.515.992 3.847c.105.409.456.708.876.746.031.003.062.004.093.004.385 0 .74-.223.906-.577l4.166-8.925c.167-.358.107-.781-.152-1.079s-.67-.417-1.048-.3l-9.416 2.888c-.405.125-.687.489-.707.91zm8.557-1.225-2.035 4.36-.421-1.632c-.079-.305-.296-.555-.587-.675l-1.558-.643z"/></svg>